<svg width="540" height="540" viewBox="0 0 540 540" fill="none" xmlns="http://www.w3.org/2000/svg">
<path d="M193.359 1.00011C193.359 1.02826 193.336 1.05109 193.308 1.05109C193.28 1.05109 193.257 1.02826 193.257 1.00011C193.257 0.971952 193.28 0.949127 193.308 0.949127C193.336 0.949127 193.359 0.971952 193.359 1.00011Z" fill="white"/>
<path d="M231.871 1.00011C231.871 1.05642 231.826 1.10207 231.769 1.10207C231.713 1.10207 231.667 1.05642 231.667 1.00011C231.667 0.943797 231.713 0.898148 231.769 0.898148C231.826 0.898148 231.871 0.943797 231.871 1.00011Z" fill="white"/>
<path d="M270.384 1.00011C270.384 1.08458 270.315 1.15305 270.231 1.15305C270.146 1.15305 270.078 1.08458 270.078 1.00011C270.078 0.915642 270.146 0.847168 270.231 0.847168C270.315 0.847168 270.384 0.915642 270.384 1.00011Z" fill="white"/>
<path d="M308.794 1.00011C308.794 1.05642 308.749 1.10207 308.692 1.10207C308.636 1.10207 308.59 1.05642 308.59 1.00011C308.59 0.943797 308.636 0.898148 308.692 0.898148C308.749 0.898148 308.794 0.943797 308.794 1.00011Z" fill="white"/>
<path d="M347.205 1.00011C347.205 1.02826 347.182 1.05109 347.154 1.05109C347.126 1.05109 347.103 1.02826 347.103 1.00011C347.103 0.971952 347.126 0.949127 347.154 0.949127C347.182 0.949127 347.205 0.971952 347.205 1.00011Z" fill="white"/>
<path d="M116.487 39.4617C116.487 39.518 116.441 39.5636 116.385 39.5636C116.328 39.5636 116.283 39.518 116.283 39.4617C116.283 39.4053 116.328 39.3597 116.385 39.3597C116.441 39.3597 116.487 39.4053 116.487 39.4617Z" fill="white"/>
<path d="M155.305 39.4616C155.305 39.715 155.1 39.9205 154.846 39.9205C154.593 39.9205 154.387 39.715 154.387 39.4616C154.387 39.2082 154.593 39.0028 154.846 39.0028C155.1 39.0028 155.305 39.2082 155.305 39.4616Z" fill="white"/>
<path d="M194.276 39.4617C194.276 39.9966 193.843 40.4303 193.308 40.4303C192.773 40.4303 192.339 39.9966 192.339 39.4617C192.339 38.9267 192.773 38.493 193.308 38.493C193.843 38.493 194.276 38.9267 194.276 39.4617Z" fill="white"/>
<path d="M233.299 39.4616C233.299 40.3063 232.614 40.9911 231.769 40.9911C230.925 40.9911 230.24 40.3063 230.24 39.4616C230.24 38.617 230.925 37.9322 231.769 37.9322C232.614 37.9322 233.299 38.617 233.299 39.4616Z" fill="white"/>
<path d="M271.913 39.4616C271.913 40.3908 271.16 41.144 270.231 41.144C269.302 41.144 268.548 40.3908 268.548 39.4616C268.548 38.5325 269.302 37.7793 270.231 37.7793C271.16 37.7793 271.913 38.5325 271.913 39.4616Z" fill="white"/>
<path d="M310.222 39.4616C310.222 40.3063 309.537 40.9911 308.692 40.9911C307.848 40.9911 307.163 40.3063 307.163 39.4616C307.163 38.617 307.848 37.9322 308.692 37.9322C309.537 37.9322 310.222 38.617 310.222 39.4616Z" fill="white"/>
<path d="M348.122 39.4617C348.122 39.9966 347.689 40.4303 347.154 40.4303C346.619 40.4303 346.185 39.9966 346.185 39.4617C346.185 38.9267 346.619 38.493 347.154 38.493C347.689 38.493 348.122 38.9267 348.122 39.4617Z" fill="white"/>
<path d="M386.074 39.4616C386.074 39.715 385.869 39.9205 385.615 39.9205C385.362 39.9205 385.157 39.715 385.157 39.4616C385.157 39.2082 385.362 39.0028 385.615 39.0028C385.869 39.0028 386.074 39.2082 386.074 39.4616Z" fill="white"/>
<path d="M424.179 39.4617C424.179 39.518 424.133 39.5636 424.077 39.5636C424.021 39.5636 423.975 39.518 423.975 39.4617C423.975 39.4053 424.021 39.3597 424.077 39.3597C424.133 39.3597 424.179 39.4053 424.179 39.4617Z" fill="white"/>
<path d="M78.178 77.9232C78.178 78.064 78.0639 78.1781 77.9231 78.1781C77.7823 78.1781 77.6682 78.064 77.6682 77.9232C77.6682 77.7824 77.7823 77.6683 77.9231 77.6683C78.0639 77.6683 78.178 77.7824 78.178 77.9232Z" fill="white"/>
<path d="M117.302 77.9232C117.302 78.43 116.891 78.8408 116.385 78.8408C115.878 78.8408 115.467 78.43 115.467 77.9232C115.467 77.4164 115.878 77.0055 116.385 77.0055C116.891 77.0055 117.302 77.4164 117.302 77.9232Z" fill="white"/>
<path d="M157.089 77.9232C157.089 79.162 156.085 80.1663 154.846 80.1663C153.607 80.1663 152.603 79.162 152.603 77.9232C152.603 76.6843 153.607 75.68 154.846 75.68C156.085 75.68 157.089 76.6843 157.089 77.9232Z" fill="white"/>
<path d="M197.029 77.9232C197.029 79.9785 195.363 81.6448 193.308 81.6448C191.252 81.6448 189.586 79.9785 189.586 77.9232C189.586 75.8678 191.252 74.2016 193.308 74.2016C195.363 74.2016 197.029 75.8678 197.029 77.9232Z" fill="white"/>
<path d="M236.765 77.9232C236.765 80.6824 234.528 82.9193 231.769 82.9193C229.01 82.9193 226.773 80.6824 226.773 77.9232C226.773 75.1639 229.01 72.9271 231.769 72.9271C234.528 72.9271 236.765 75.1639 236.765 77.9232Z" fill="white"/>
<path d="M275.686 77.9232C275.686 80.9358 273.243 83.3781 270.231 83.3781C267.218 83.3781 264.776 80.9358 264.776 77.9232C264.776 74.9105 267.218 72.4683 270.231 72.4683C273.243 72.4683 275.686 74.9105 275.686 77.9232Z" fill="white"/>
<path d="M313.688 77.9232C313.688 80.6824 311.452 82.9193 308.692 82.9193C305.933 82.9193 303.696 80.6824 303.696 77.9232C303.696 75.1639 305.933 72.9271 308.692 72.9271C311.452 72.9271 313.688 75.1639 313.688 77.9232Z" fill="white"/>
<path d="M350.926 77.9232C350.926 80.0067 349.237 81.6957 347.154 81.6957C345.07 81.6957 343.381 80.0067 343.381 77.9232C343.381 75.8397 345.07 74.1506 347.154 74.1506C349.237 74.1506 350.926 75.8397 350.926 77.9232Z" fill="white"/>
<path d="M387.859 77.9232C387.859 79.162 386.854 80.1663 385.615 80.1663C384.377 80.1663 383.372 79.162 383.372 77.9232C383.372 76.6843 384.377 75.68 385.615 75.68C386.854 75.68 387.859 76.6843 387.859 77.9232Z" fill="white"/>
<path d="M424.995 77.9232C424.995 78.43 424.584 78.8408 424.077 78.8408C423.57 78.8408 423.159 78.43 423.159 77.9232C423.159 77.4164 423.57 77.0055 424.077 77.0055C424.584 77.0055 424.995 77.4164 424.995 77.9232Z" fill="white"/>
<path d="M462.793 77.9232C462.793 78.064 462.679 78.1781 462.538 78.1781C462.398 78.1781 462.284 78.064 462.284 77.9232C462.284 77.7824 462.398 77.6683 462.538 77.6683C462.679 77.6683 462.793 77.7824 462.793 77.9232Z" fill="white"/>
<path d="M39.5635 116.385C39.5635 116.441 39.5178 116.487 39.4615 116.487C39.4052 116.487 39.3596 116.441 39.3596 116.385C39.3596 116.328 39.4052 116.283 39.4615 116.283C39.5178 116.283 39.5635 116.328 39.5635 116.385Z" fill="white"/>
<path d="M78.8407 116.385C78.8407 116.892 78.4299 117.302 77.9231 117.302C77.4163 117.302 77.0054 116.892 77.0054 116.385C77.0054 115.878 77.4163 115.467 77.9231 115.467C78.4299 115.467 78.8407 115.878 78.8407 116.385Z" fill="white"/>
<path d="M119.036 116.385C119.036 117.849 117.849 119.036 116.385 119.036C114.921 119.036 113.734 117.849 113.734 116.385C113.734 114.921 114.921 113.734 116.385 113.734C117.849 113.734 119.036 114.921 119.036 116.385Z" fill="white"/>
<path d="M160.097 116.385C160.097 119.285 157.746 121.636 154.846 121.636C151.946 121.636 149.595 119.285 149.595 116.385C149.595 113.485 151.946 111.134 154.846 111.134C157.746 111.134 160.097 113.485 160.097 116.385Z" fill="white"/>
<path d="M200.853 116.385C200.853 120.552 197.475 123.93 193.308 123.93C189.141 123.93 185.763 120.552 185.763 116.385C185.763 112.218 189.141 108.84 193.308 108.84C197.475 108.84 200.853 112.218 200.853 116.385Z" fill="white"/>
<path d="M240.895 116.385C240.895 121.425 236.809 125.51 231.769 125.51C226.729 125.51 222.644 121.425 222.644 116.385C222.644 111.345 226.729 107.259 231.769 107.259C236.809 107.259 240.895 111.345 240.895 116.385Z" fill="white"/>
<path d="M279.815 116.385C279.815 121.678 275.524 125.969 270.231 125.969C264.937 125.969 260.646 121.678 260.646 116.385C260.646 111.091 264.937 106.8 270.231 106.8C275.524 106.8 279.815 111.091 279.815 116.385Z" fill="white"/>
<path d="M317.818 116.385C317.818 121.425 313.732 125.51 308.692 125.51C303.652 125.51 299.567 121.425 299.567 116.385C299.567 111.345 303.652 107.259 308.692 107.259C313.732 107.259 317.818 111.345 317.818 116.385Z" fill="white"/>
<path d="M354.699 116.385C354.699 120.552 351.321 123.93 347.154 123.93C342.987 123.93 339.609 120.552 339.609 116.385C339.609 112.218 342.987 108.84 347.154 108.84C351.321 108.84 354.699 112.218 354.699 116.385Z" fill="white"/>
<path d="M390.866 116.385C390.866 119.285 388.515 121.636 385.615 121.636C382.715 121.636 380.364 119.285 380.364 116.385C380.364 113.485 382.715 111.134 385.615 111.134C388.515 111.134 390.866 113.485 390.866 116.385Z" fill="white"/>
<path d="M426.677 116.385C426.677 117.821 425.513 118.985 424.077 118.985C422.641 118.985 421.477 117.821 421.477 116.385C421.477 114.949 422.641 113.785 424.077 113.785C425.513 113.785 426.677 114.949 426.677 116.385Z" fill="white"/>
<path d="M463.456 116.385C463.456 116.892 463.045 117.302 462.538 117.302C462.032 117.302 461.621 116.892 461.621 116.385C461.621 115.878 462.032 115.467 462.538 115.467C463.045 115.467 463.456 115.878 463.456 116.385Z" fill="white"/>
<path d="M501.102 116.385C501.102 116.441 501.056 116.487 501 116.487C500.944 116.487 500.898 116.441 500.898 116.385C500.898 116.328 500.944 116.283 501 116.283C501.056 116.283 501.102 116.328 501.102 116.385Z" fill="white"/>
<path d="M39.8694 154.846C39.8694 155.072 39.6868 155.254 39.4615 155.254C39.2363 155.254 39.0537 155.072 39.0537 154.846C39.0537 154.621 39.2363 154.438 39.4615 154.438C39.6868 154.438 39.8694 154.621 39.8694 154.846Z" fill="white"/>
<path d="M80.1662 154.846C80.1662 156.085 79.1619 157.089 77.923 157.089C76.6842 157.089 75.6799 156.085 75.6799 154.846C75.6799 153.607 76.6842 152.603 77.923 152.603C79.1619 152.603 80.1662 153.607 80.1662 154.846Z" fill="white"/>
<path d="M121.636 154.846C121.636 157.746 119.285 160.097 116.385 160.097C113.485 160.097 111.134 157.746 111.134 154.846C111.134 151.946 113.485 149.595 116.385 149.595C119.285 149.595 121.636 151.946 121.636 154.846Z" fill="white"/>
<path d="M163.615 154.846C163.615 159.689 159.689 163.615 154.846 163.615C150.003 163.615 146.077 159.689 146.077 154.846C146.077 150.003 150.003 146.078 154.846 146.078C159.689 146.078 163.615 150.003 163.615 154.846Z" fill="white"/>
<path d="M204.217 154.846C204.217 160.872 199.333 165.756 193.308 165.756C187.282 165.756 182.398 160.872 182.398 154.846C182.398 148.821 187.282 143.936 193.308 143.936C199.333 143.936 204.217 148.821 204.217 154.846Z" fill="white"/>
<path d="M243.801 154.846C243.801 161.491 238.414 166.878 231.769 166.878C225.124 166.878 219.738 161.491 219.738 154.846C219.738 148.202 225.124 142.815 231.769 142.815C238.414 142.815 243.801 148.202 243.801 154.846Z" fill="white"/>
<path d="M282.568 154.846C282.568 161.66 277.044 167.184 270.231 167.184C263.417 167.184 257.893 161.66 257.893 154.846C257.893 148.033 263.417 142.509 270.231 142.509C277.044 142.509 282.568 148.033 282.568 154.846Z" fill="white"/>
<path d="M320.724 154.846C320.724 161.491 315.337 166.878 308.692 166.878C302.048 166.878 296.661 161.491 296.661 154.846C296.661 148.202 302.048 142.815 308.692 142.815C315.337 142.815 320.724 148.202 320.724 154.846Z" fill="white"/>
<path d="M358.064 154.846C358.064 160.872 353.179 165.756 347.154 165.756C341.128 165.756 336.244 160.872 336.244 154.846C336.244 148.821 341.128 143.936 347.154 143.936C353.179 143.936 358.064 148.821 358.064 154.846Z" fill="white"/>
<path d="M394.384 154.846C394.384 159.689 390.458 163.615 385.615 163.615C380.773 163.615 376.847 159.689 376.847 154.846C376.847 150.003 380.773 146.078 385.615 146.078C390.458 146.078 394.384 150.003 394.384 154.846Z" fill="white"/>
<path d="M429.328 154.846C429.328 157.746 426.977 160.097 424.077 160.097C421.177 160.097 418.826 157.746 418.826 154.846C418.826 151.946 421.177 149.595 424.077 149.595C426.977 149.595 429.328 151.946 429.328 154.846Z" fill="white"/>
<path d="M464.782 154.846C464.782 156.085 463.777 157.089 462.538 157.089C461.3 157.089 460.295 156.085 460.295 154.846C460.295 153.607 461.3 152.603 462.538 152.603C463.777 152.603 464.782 153.607 464.782 154.846Z" fill="white"/>
<path d="M501.459 154.846C501.459 155.1 501.253 155.305 501 155.305C500.747 155.305 500.541 155.1 500.541 154.846C500.541 154.593 500.747 154.387 501 154.387C501.253 154.387 501.459 154.593 501.459 154.846Z" fill="white"/>
<path d="M1.05097 193.308C1.05097 193.336 1.02814 193.359 0.999986 193.359C0.97183 193.359 0.949005 193.336 0.949005 193.308C0.949005 193.28 0.97183 193.257 0.999986 193.257C1.02814 193.257 1.05097 193.28 1.05097 193.308Z" fill="white"/>
<path d="M40.4302 193.308C40.4302 193.843 39.9965 194.276 39.4615 194.276C38.9266 194.276 38.4929 193.843 38.4929 193.308C38.4929 192.773 38.9266 192.339 39.4615 192.339C39.9965 192.339 40.4302 192.773 40.4302 193.308Z" fill="white"/>
<path d="M81.6446 193.308C81.6446 195.363 79.9784 197.029 77.9231 197.029C75.8677 197.029 74.2015 195.363 74.2015 193.308C74.2015 191.252 75.8677 189.586 77.9231 189.586C79.9784 189.586 81.6446 191.252 81.6446 193.308Z" fill="white"/>
<path d="M123.93 193.308C123.93 197.475 120.552 200.853 116.385 200.853C112.218 200.853 108.839 197.475 108.839 193.308C108.839 189.141 112.218 185.763 116.385 185.763C120.552 185.763 123.93 189.141 123.93 193.308Z" fill="white"/>
<path d="M165.756 193.308C165.756 199.333 160.871 204.218 154.846 204.218C148.821 204.218 143.936 199.333 143.936 193.308C143.936 187.282 148.821 182.398 154.846 182.398C160.871 182.398 165.756 187.282 165.756 193.308Z" fill="white"/>
<path d="M205.798 193.308C205.798 200.206 200.206 205.798 193.308 205.798C186.41 205.798 180.817 200.206 180.817 193.308C180.817 186.41 186.41 180.818 193.308 180.818C200.206 180.818 205.798 186.41 205.798 193.308Z" fill="white"/>
<path d="M244.718 193.308C244.718 200.459 238.921 206.257 231.769 206.257C224.618 206.257 218.82 200.459 218.82 193.308C218.82 186.156 224.618 180.359 231.769 180.359C238.921 180.359 244.718 186.156 244.718 193.308Z" fill="white"/>
<path d="M283.18 193.308C283.18 200.459 277.382 206.257 270.231 206.257C263.079 206.257 257.282 200.459 257.282 193.308C257.282 186.156 263.079 180.359 270.231 180.359C277.382 180.359 283.18 186.156 283.18 193.308Z" fill="white"/>
<path d="M321.641 193.308C321.641 200.459 315.844 206.257 308.692 206.257C301.541 206.257 295.743 200.459 295.743 193.308C295.743 186.156 301.541 180.359 308.692 180.359C315.844 180.359 321.641 186.156 321.641 193.308Z" fill="white"/>
<path d="M359.644 193.308C359.644 200.206 354.052 205.798 347.154 205.798C340.256 205.798 334.664 200.206 334.664 193.308C334.664 186.41 340.256 180.818 347.154 180.818C354.052 180.818 359.644 186.41 359.644 193.308Z" fill="white"/>
<path d="M396.576 193.308C396.576 199.361 391.669 204.269 385.615 204.269C379.562 204.269 374.655 199.361 374.655 193.308C374.655 187.254 379.562 182.347 385.615 182.347C391.669 182.347 396.576 187.254 396.576 193.308Z" fill="white"/>
<path d="M431.622 193.308C431.622 197.475 428.244 200.853 424.077 200.853C419.91 200.853 416.532 197.475 416.532 193.308C416.532 189.141 419.91 185.763 424.077 185.763C428.244 185.763 431.622 189.141 431.622 193.308Z" fill="white"/>
<path d="M466.26 193.308C466.26 195.363 464.594 197.029 462.538 197.029C460.483 197.029 458.817 195.363 458.817 193.308C458.817 191.252 460.483 189.586 462.538 189.586C464.594 189.586 466.26 191.252 466.26 193.308Z" fill="white"/>
<path d="M501.969 193.308C501.969 193.843 501.535 194.276 501 194.276C500.465 194.276 500.031 193.843 500.031 193.308C500.031 192.773 500.465 192.339 501 192.339C501.535 192.339 501.969 192.773 501.969 193.308Z" fill="white"/>
<path d="M539.563 193.308C539.563 193.364 539.518 193.41 539.461 193.41C539.405 193.41 539.36 193.364 539.36 193.308C539.36 193.251 539.405 193.206 539.461 193.206C539.518 193.206 539.563 193.251 539.563 193.308Z" fill="white"/>
<path d="M1.10195 231.769C1.10195 231.826 1.0563 231.871 0.999986 231.871C0.943675 231.871 0.898026 231.826 0.898026 231.769C0.898026 231.713 0.943675 231.667 0.999986 231.667C1.0563 231.667 1.10195 231.713 1.10195 231.769Z" fill="white"/>
<path d="M40.9909 231.769C40.9909 232.614 40.3062 233.299 39.4615 233.299C38.6169 233.299 37.9321 232.614 37.9321 231.769C37.9321 230.925 38.6169 230.24 39.4615 230.24C40.3062 230.24 40.9909 230.925 40.9909 231.769Z" fill="white"/>
<path d="M82.9191 231.769C82.9191 234.529 80.6823 236.765 77.9231 236.765C75.1638 236.765 72.927 234.529 72.927 231.769C72.927 229.01 75.1638 226.773 77.9231 226.773C80.6823 226.773 82.9191 229.01 82.9191 231.769Z" fill="white"/>
<path d="M125.51 231.769C125.51 236.809 121.424 240.895 116.385 240.895C111.345 240.895 107.259 236.809 107.259 231.769C107.259 226.729 111.345 222.644 116.385 222.644C121.424 222.644 125.51 226.729 125.51 231.769Z" fill="white"/>
<path d="M166.878 231.769C166.878 238.414 161.491 243.801 154.846 243.801C148.201 243.801 142.815 238.414 142.815 231.769C142.815 225.125 148.201 219.738 154.846 219.738C161.491 219.738 166.878 225.125 166.878 231.769Z" fill="white"/>
<path d="M206.257 231.769C206.257 238.921 200.459 244.718 193.308 244.718C186.156 244.718 180.359 238.921 180.359 231.769C180.359 224.618 186.156 218.82 193.308 218.82C200.459 218.82 206.257 224.618 206.257 231.769Z" fill="white"/>
<path d="M244.769 231.769C244.769 238.949 238.949 244.769 231.769 244.769C224.59 244.769 218.769 238.949 218.769 231.769C218.769 224.59 224.59 218.769 231.769 218.769C238.949 218.769 244.769 224.59 244.769 231.769Z" fill="white"/>
<path d="M283.18 231.769C283.18 238.921 277.382 244.718 270.231 244.718C263.079 244.718 257.282 238.921 257.282 231.769C257.282 224.618 263.079 218.82 270.231 218.82C277.382 218.82 283.18 224.618 283.18 231.769Z" fill="white"/>
<path d="M321.692 231.769C321.692 238.949 315.872 244.769 308.692 244.769C301.513 244.769 295.692 238.949 295.692 231.769C295.692 224.59 301.513 218.769 308.692 218.769C315.872 218.769 321.692 224.59 321.692 231.769Z" fill="white"/>
<path d="M360.052 231.769C360.052 238.893 354.277 244.667 347.154 244.667C340.03 244.667 334.256 238.893 334.256 231.769C334.256 224.646 340.03 218.871 347.154 218.871C354.277 218.871 360.052 224.646 360.052 231.769Z" fill="white"/>
<path d="M397.647 231.769C397.647 238.414 392.26 243.801 385.615 243.801C378.971 243.801 373.584 238.414 373.584 231.769C373.584 225.125 378.971 219.738 385.615 219.738C392.26 219.738 397.647 225.125 397.647 231.769Z" fill="white"/>
<path d="M433.151 231.769C433.151 236.781 429.089 240.844 424.077 240.844C419.065 240.844 415.002 236.781 415.002 231.769C415.002 226.758 419.065 222.695 424.077 222.695C429.089 222.695 433.151 226.758 433.151 231.769Z" fill="white"/>
<path d="M467.534 231.769C467.534 234.529 465.298 236.765 462.538 236.765C459.779 236.765 457.542 234.529 457.542 231.769C457.542 229.01 459.779 226.773 462.538 226.773C465.298 226.773 467.534 229.01 467.534 231.769Z" fill="white"/>
<path d="M502.529 231.769C502.529 232.614 501.845 233.299 501 233.299C500.155 233.299 499.471 232.614 499.471 231.769C499.471 230.925 500.155 230.24 501 230.24C501.845 230.24 502.529 230.925 502.529 231.769Z" fill="white"/>
<path d="M539.563 231.769C539.563 231.826 539.518 231.871 539.461 231.871C539.405 231.871 539.36 231.826 539.36 231.769C539.36 231.713 539.405 231.667 539.461 231.667C539.518 231.667 539.563 231.713 539.563 231.769Z" fill="white"/>
<path d="M1.15293 270.231C1.15293 270.315 1.08445 270.384 0.999987 270.384C0.91552 270.384 0.847046 270.315 0.847046 270.231C0.847046 270.146 0.91552 270.078 0.999987 270.078C1.08445 270.078 1.15293 270.146 1.15293 270.231Z" fill="white"/>
<path d="M41.1949 270.231C41.1949 271.188 40.4188 271.964 39.4615 271.964C38.5042 271.964 37.7282 271.188 37.7282 270.231C37.7282 269.274 38.5042 268.498 39.4615 268.498C40.4188 268.498 41.1949 269.274 41.1949 270.231Z" fill="white"/>
<path d="M83.378 270.231C83.378 273.244 80.9357 275.686 77.9231 275.686C74.9104 275.686 72.4682 273.244 72.4682 270.231C72.4682 267.218 74.9104 264.776 77.9231 264.776C80.9357 264.776 83.378 267.218 83.378 270.231Z" fill="white"/>
<path d="M125.969 270.231C125.969 275.524 121.678 279.815 116.385 279.815C111.091 279.815 106.8 275.524 106.8 270.231C106.8 264.938 111.091 260.647 116.385 260.647C121.678 260.647 125.969 264.938 125.969 270.231Z" fill="white"/>
<path d="M167.132 270.231C167.132 277.016 161.632 282.517 154.846 282.517C148.061 282.517 142.56 277.016 142.56 270.231C142.56 263.445 148.061 257.945 154.846 257.945C161.632 257.945 167.132 263.445 167.132 270.231Z" fill="white"/>
<path d="M206.257 270.231C206.257 277.382 200.459 283.18 193.308 283.18C186.156 283.18 180.359 277.382 180.359 270.231C180.359 263.079 186.156 257.282 193.308 257.282C200.459 257.282 206.257 263.079 206.257 270.231Z" fill="white"/>
<path d="M244.718 270.231C244.718 277.382 238.921 283.18 231.769 283.18C224.618 283.18 218.82 277.382 218.82 270.231C218.82 263.079 224.618 257.282 231.769 257.282C238.921 257.282 244.718 263.079 244.718 270.231Z" fill="white"/>
<path d="M283.18 270.231C283.18 277.382 277.382 283.18 270.231 283.18C263.079 283.18 257.282 277.382 257.282 270.231C257.282 263.079 263.079 257.282 270.231 257.282C277.382 257.282 283.18 263.079 283.18 270.231Z" fill="white"/>
<path d="M321.641 270.231C321.641 277.382 315.844 283.18 308.692 283.18C301.541 283.18 295.743 277.382 295.743 270.231C295.743 263.079 301.541 257.282 308.692 257.282C315.844 257.282 321.641 263.079 321.641 270.231Z" fill="white"/>
<path d="M360.103 270.231C360.103 277.382 354.305 283.18 347.154 283.18C340.002 283.18 334.205 277.382 334.205 270.231C334.205 263.079 340.002 257.282 347.154 257.282C354.305 257.282 360.103 263.079 360.103 270.231Z" fill="white"/>
<path d="M397.902 270.231C397.902 277.016 392.401 282.517 385.615 282.517C378.83 282.517 373.329 277.016 373.329 270.231C373.329 263.445 378.83 257.945 385.615 257.945C392.401 257.945 397.902 263.445 397.902 270.231Z" fill="white"/>
<path d="M433.661 270.231C433.661 275.524 429.37 279.815 424.077 279.815C418.784 279.815 414.493 275.524 414.493 270.231C414.493 264.938 418.784 260.647 424.077 260.647C429.37 260.647 433.661 264.938 433.661 270.231Z" fill="white"/>
<path d="M467.942 270.231C467.942 273.215 465.523 275.635 462.538 275.635C459.554 275.635 457.135 273.215 457.135 270.231C457.135 267.246 459.554 264.827 462.538 264.827C465.523 264.827 467.942 267.246 467.942 270.231Z" fill="white"/>
<path d="M502.682 270.231C502.682 271.16 501.929 271.913 501 271.913C500.071 271.913 499.318 271.16 499.318 270.231C499.318 269.302 500.071 268.549 501 268.549C501.929 268.549 502.682 269.302 502.682 270.231Z" fill="white"/>
<path d="M539.563 270.231C539.563 270.287 539.518 270.333 539.461 270.333C539.405 270.333 539.36 270.287 539.36 270.231C539.36 270.175 539.405 270.129 539.461 270.129C539.518 270.129 539.563 270.175 539.563 270.231Z" fill="white"/>
<path d="M1.15293 308.692C1.15293 308.777 1.08445 308.845 0.999987 308.845C0.91552 308.845 0.847046 308.777 0.847046 308.692C0.847046 308.608 0.91552 308.539 0.999987 308.539C1.08445 308.539 1.15293 308.608 1.15293 308.692Z" fill="white"/>
<path d="M40.9399 308.692C40.9399 309.509 40.278 310.171 39.4615 310.171C38.645 310.171 37.9831 309.509 37.9831 308.692C37.9831 307.876 38.645 307.214 39.4615 307.214C40.278 307.214 40.9399 307.876 40.9399 308.692Z" fill="white"/>
<path d="M82.8681 308.692C82.8681 311.423 80.6542 313.637 77.923 313.637C75.1919 313.637 72.978 311.423 72.978 308.692C72.978 305.961 75.1919 303.747 77.923 303.747C80.6542 303.747 82.8681 305.961 82.8681 308.692Z" fill="white"/>
<path d="M125.51 308.692C125.51 313.732 121.424 317.818 116.385 317.818C111.345 317.818 107.259 313.732 107.259 308.692C107.259 303.653 111.345 299.567 116.385 299.567C121.424 299.567 125.51 303.653 125.51 308.692Z" fill="white"/>
<path d="M166.827 308.692C166.827 315.309 161.463 320.673 154.846 320.673C148.23 320.673 142.866 315.309 142.866 308.692C142.866 302.076 148.23 296.712 154.846 296.712C161.463 296.712 166.827 302.076 166.827 308.692Z" fill="white"/>
<path d="M206.257 308.692C206.257 315.844 200.459 321.641 193.308 321.641C186.156 321.641 180.359 315.844 180.359 308.692C180.359 301.541 186.156 295.743 193.308 295.743C200.459 295.743 206.257 301.541 206.257 308.692Z" fill="white"/>
<path d="M244.718 308.692C244.718 315.844 238.921 321.641 231.769 321.641C224.618 321.641 218.82 315.844 218.82 308.692C218.82 301.541 224.618 295.743 231.769 295.743C238.921 295.743 244.718 301.541 244.718 308.692Z" fill="white"/>
<path d="M283.18 308.692C283.18 315.844 277.382 321.641 270.231 321.641C263.079 321.641 257.282 315.844 257.282 308.692C257.282 301.541 263.079 295.743 270.231 295.743C277.382 295.743 283.18 301.541 283.18 308.692Z" fill="white"/>
<path d="M321.641 308.692C321.641 315.844 315.844 321.641 308.692 321.641C301.541 321.641 295.743 315.844 295.743 308.692C295.743 301.541 301.541 295.743 308.692 295.743C315.844 295.743 321.641 301.541 321.641 308.692Z" fill="white"/>
<path d="M360.052 308.692C360.052 315.816 354.277 321.59 347.154 321.59C340.03 321.59 334.256 315.816 334.256 308.692C334.256 301.569 340.03 295.794 347.154 295.794C354.277 295.794 360.052 301.569 360.052 308.692Z" fill="white"/>
<path d="M397.647 308.692C397.647 315.337 392.26 320.724 385.615 320.724C378.971 320.724 373.584 315.337 373.584 308.692C373.584 302.048 378.971 296.661 385.615 296.661C392.26 296.661 397.647 302.048 397.647 308.692Z" fill="white"/>
<path d="M433.151 308.692C433.151 313.704 429.089 317.767 424.077 317.767C419.065 317.767 415.002 313.704 415.002 308.692C415.002 303.681 419.065 299.618 424.077 299.618C429.089 299.618 433.151 303.681 433.151 308.692Z" fill="white"/>
<path d="M467.484 308.692C467.484 311.423 465.27 313.637 462.538 313.637C459.807 313.637 457.593 311.423 457.593 308.692C457.593 305.961 459.807 303.747 462.538 303.747C465.27 303.747 467.484 305.961 467.484 308.692Z" fill="white"/>
<path d="M502.529 308.692C502.529 309.537 501.845 310.222 501 310.222C500.155 310.222 499.471 309.537 499.471 308.692C499.471 307.848 500.155 307.163 501 307.163C501.845 307.163 502.529 307.848 502.529 308.692Z" fill="white"/>
<path d="M539.563 308.692C539.563 308.749 539.518 308.794 539.461 308.794C539.405 308.794 539.36 308.749 539.36 308.692C539.36 308.636 539.405 308.59 539.461 308.59C539.518 308.59 539.563 308.636 539.563 308.692Z" fill="white"/>
<path d="M1.05097 347.154C1.05097 347.182 1.02814 347.205 0.999986 347.205C0.97183 347.205 0.949005 347.182 0.949005 347.154C0.949005 347.126 0.97183 347.103 0.999986 347.103C1.02814 347.103 1.05097 347.126 1.05097 347.154Z" fill="white"/>
<path d="M40.4811 347.154C40.4811 347.717 40.0246 348.174 39.4615 348.174C38.8984 348.174 38.4419 347.717 38.4419 347.154C38.4419 346.591 38.8984 346.134 39.4615 346.134C40.0246 346.134 40.4811 346.591 40.4811 347.154Z" fill="white"/>
<path d="M81.6446 347.154C81.6446 349.209 79.9784 350.875 77.9231 350.875C75.8677 350.875 74.2015 349.209 74.2015 347.154C74.2015 345.099 75.8677 343.432 77.9231 343.432C79.9784 343.432 81.6446 345.099 81.6446 347.154Z" fill="white"/>
<path d="M123.879 347.154C123.879 351.293 120.523 354.648 116.385 354.648C112.246 354.648 108.89 351.293 108.89 347.154C108.89 343.015 112.246 339.66 116.385 339.66C120.523 339.66 123.879 343.015 123.879 347.154Z" fill="white"/>
<path d="M165.756 347.154C165.756 353.179 160.871 358.064 154.846 358.064C148.821 358.064 143.936 353.179 143.936 347.154C143.936 341.129 148.821 336.244 154.846 336.244C160.871 336.244 165.756 341.129 165.756 347.154Z" fill="white"/>
<path d="M205.798 347.154C205.798 354.052 200.206 359.644 193.308 359.644C186.41 359.644 180.817 354.052 180.817 347.154C180.817 340.256 186.41 334.664 193.308 334.664C200.206 334.664 205.798 340.256 205.798 347.154Z" fill="white"/>
<path d="M244.667 347.154C244.667 354.277 238.893 360.052 231.769 360.052C224.646 360.052 218.871 354.277 218.871 347.154C218.871 340.031 224.646 334.256 231.769 334.256C238.893 334.256 244.667 340.031 244.667 347.154Z" fill="white"/>
<path d="M283.231 347.154C283.231 354.334 277.41 360.154 270.231 360.154C263.051 360.154 257.231 354.334 257.231 347.154C257.231 339.974 263.051 334.154 270.231 334.154C277.41 334.154 283.231 339.974 283.231 347.154Z" fill="white"/>
<path d="M321.59 347.154C321.59 354.277 315.816 360.052 308.692 360.052C301.569 360.052 295.794 354.277 295.794 347.154C295.794 340.031 301.569 334.256 308.692 334.256C315.816 334.256 321.59 340.031 321.59 347.154Z" fill="white"/>
<path d="M359.593 347.154C359.593 354.024 354.024 359.593 347.154 359.593C340.284 359.593 334.715 354.024 334.715 347.154C334.715 340.284 340.284 334.715 347.154 334.715C354.024 334.715 359.593 340.284 359.593 347.154Z" fill="white"/>
<path d="M396.474 347.154C396.474 353.151 391.612 358.013 385.615 358.013C379.618 358.013 374.757 353.151 374.757 347.154C374.757 341.157 379.618 336.295 385.615 336.295C391.612 336.295 396.474 341.157 396.474 347.154Z" fill="white"/>
<path d="M431.571 347.154C431.571 351.293 428.216 354.648 424.077 354.648C419.938 354.648 416.583 351.293 416.583 347.154C416.583 343.015 419.938 339.66 424.077 339.66C428.216 339.66 431.571 343.015 431.571 347.154Z" fill="white"/>
<path d="M466.26 347.154C466.26 349.209 464.594 350.875 462.538 350.875C460.483 350.875 458.817 349.209 458.817 347.154C458.817 345.099 460.483 343.432 462.538 343.432C464.594 343.432 466.26 345.099 466.26 347.154Z" fill="white"/>
<path d="M502.02 347.154C502.02 347.717 501.563 348.174 501 348.174C500.437 348.174 499.98 347.717 499.98 347.154C499.98 346.591 500.437 346.134 501 346.134C501.563 346.134 502.02 346.591 502.02 347.154Z" fill="white"/>
<path d="M539.563 347.154C539.563 347.21 539.518 347.256 539.461 347.256C539.405 347.256 539.36 347.21 539.36 347.154C539.36 347.098 539.405 347.052 539.461 347.052C539.518 347.052 539.563 347.098 539.563 347.154Z" fill="white"/>
<path d="M39.9203 385.615C39.9203 385.869 39.7149 386.074 39.4615 386.074C39.2081 386.074 39.0027 385.869 39.0027 385.615C39.0027 385.362 39.2081 385.157 39.4615 385.157C39.7149 385.157 39.9203 385.362 39.9203 385.615Z" fill="white"/>
<path d="M80.1662 385.616C80.1662 386.854 79.1619 387.859 77.923 387.859C76.6842 387.859 75.6799 386.854 75.6799 385.616C75.6799 384.377 76.6842 383.372 77.923 383.372C79.1619 383.372 80.1662 384.377 80.1662 385.616Z" fill="white"/>
<path d="M121.636 385.615C121.636 388.516 119.285 390.866 116.385 390.866C113.485 390.866 111.134 388.516 111.134 385.615C111.134 382.715 113.485 380.365 116.385 380.365C119.285 380.365 121.636 382.715 121.636 385.615Z" fill="white"/>
<path d="M163.615 385.615C163.615 390.458 159.689 394.384 154.846 394.384C150.003 394.384 146.077 390.458 146.077 385.615C146.077 380.773 150.003 376.847 154.846 376.847C159.689 376.847 163.615 380.773 163.615 385.615Z" fill="white"/>
<path d="M204.167 385.615C204.167 391.613 199.305 396.474 193.308 396.474C187.311 396.474 182.449 391.613 182.449 385.615C182.449 379.618 187.311 374.757 193.308 374.757C199.305 374.757 204.167 379.618 204.167 385.615Z" fill="white"/>
<path d="M243.801 385.615C243.801 392.26 238.414 397.647 231.769 397.647C225.124 397.647 219.738 392.26 219.738 385.615C219.738 378.971 225.124 373.584 231.769 373.584C238.414 373.584 243.801 378.971 243.801 385.615Z" fill="white"/>
<path d="M282.517 385.615C282.517 392.401 277.016 397.902 270.231 397.902C263.445 397.902 257.944 392.401 257.944 385.615C257.944 378.83 263.445 373.329 270.231 373.329C277.016 373.329 282.517 378.83 282.517 385.615Z" fill="white"/>
<path d="M320.724 385.615C320.724 392.26 315.337 397.647 308.692 397.647C302.048 397.647 296.661 392.26 296.661 385.615C296.661 378.971 302.048 373.584 308.692 373.584C315.337 373.584 320.724 378.971 320.724 385.615Z" fill="white"/>
<path d="M358.013 385.615C358.013 391.613 353.151 396.474 347.154 396.474C341.157 396.474 336.295 391.613 336.295 385.615C336.295 379.618 341.157 374.757 347.154 374.757C353.151 374.757 358.013 379.618 358.013 385.615Z" fill="white"/>
<path d="M394.384 385.615C394.384 390.458 390.458 394.384 385.615 394.384C380.773 394.384 376.847 390.458 376.847 385.615C376.847 380.773 380.773 376.847 385.615 376.847C390.458 376.847 394.384 380.773 394.384 385.615Z" fill="white"/>
<path d="M429.328 385.615C429.328 388.516 426.977 390.866 424.077 390.866C421.177 390.866 418.826 388.516 418.826 385.615C418.826 382.715 421.177 380.365 424.077 380.365C426.977 380.365 429.328 382.715 429.328 385.615Z" fill="white"/>
<path d="M464.782 385.616C464.782 386.854 463.777 387.859 462.538 387.859C461.3 387.859 460.295 386.854 460.295 385.616C460.295 384.377 461.3 383.372 462.538 383.372C463.777 383.372 464.782 384.377 464.782 385.616Z" fill="white"/>
<path d="M501.408 385.615C501.408 385.841 501.225 386.023 501 386.023C500.775 386.023 500.592 385.841 500.592 385.615C500.592 385.39 500.775 385.208 501 385.208C501.225 385.208 501.408 385.39 501.408 385.615Z" fill="white"/>
<path d="M39.5635 424.077C39.5635 424.133 39.5178 424.179 39.4615 424.179C39.4052 424.179 39.3596 424.133 39.3596 424.077C39.3596 424.021 39.4052 423.975 39.4615 423.975C39.5178 423.975 39.5635 424.021 39.5635 424.077Z" fill="white"/>
<path d="M78.7897 424.077C78.7897 424.556 78.4017 424.944 77.923 424.944C77.4444 424.944 77.0564 424.556 77.0564 424.077C77.0564 423.598 77.4444 423.21 77.923 423.21C78.4017 423.21 78.7897 423.598 78.7897 424.077Z" fill="white"/>
<path d="M118.985 424.077C118.985 425.513 117.821 426.677 116.385 426.677C114.949 426.677 113.785 425.513 113.785 424.077C113.785 422.641 114.949 421.477 116.385 421.477C117.821 421.477 118.985 422.641 118.985 424.077Z" fill="white"/>
<path d="M160.046 424.077C160.046 426.949 157.718 429.277 154.846 429.277C151.974 429.277 149.646 426.949 149.646 424.077C149.646 421.205 151.974 418.877 154.846 418.877C157.718 418.877 160.046 421.205 160.046 424.077Z" fill="white"/>
<path d="M200.802 424.077C200.802 428.216 197.447 431.571 193.308 431.571C189.169 431.571 185.814 428.216 185.814 424.077C185.814 419.938 189.169 416.583 193.308 416.583C197.447 416.583 200.802 419.938 200.802 424.077Z" fill="white"/>
<path d="M240.844 424.077C240.844 429.089 236.781 433.152 231.769 433.152C226.758 433.152 222.695 429.089 222.695 424.077C222.695 419.065 226.758 415.003 231.769 415.003C236.781 415.003 240.844 419.065 240.844 424.077Z" fill="white"/>
<path d="M279.764 424.077C279.764 429.342 275.496 433.61 270.231 433.61C264.966 433.61 260.697 429.342 260.697 424.077C260.697 418.812 264.966 414.544 270.231 414.544C275.496 414.544 279.764 418.812 279.764 424.077Z" fill="white"/>
<path d="M317.767 424.077C317.767 429.089 313.704 433.152 308.692 433.152C303.681 433.152 299.618 429.089 299.618 424.077C299.618 419.065 303.681 415.003 308.692 415.003C313.704 415.003 317.767 419.065 317.767 424.077Z" fill="white"/>
<path d="M354.648 424.077C354.648 428.216 351.293 431.571 347.154 431.571C343.015 431.571 339.66 428.216 339.66 424.077C339.66 419.938 343.015 416.583 347.154 416.583C351.293 416.583 354.648 419.938 354.648 424.077Z" fill="white"/>
<path d="M390.866 424.077C390.866 426.977 388.515 429.328 385.615 429.328C382.715 429.328 380.364 426.977 380.364 424.077C380.364 421.177 382.715 418.826 385.615 418.826C388.515 418.826 390.866 421.177 390.866 424.077Z" fill="white"/>
<path d="M426.677 424.077C426.677 425.513 425.513 426.677 424.077 426.677C422.641 426.677 421.477 425.513 421.477 424.077C421.477 422.641 422.641 421.477 424.077 421.477C425.513 421.477 426.677 422.641 426.677 424.077Z" fill="white"/>
<path d="M463.456 424.077C463.456 424.584 463.045 424.995 462.538 424.995C462.032 424.995 461.621 424.584 461.621 424.077C461.621 423.57 462.032 423.159 462.538 423.159C463.045 423.159 463.456 423.57 463.456 424.077Z" fill="white"/>
<path d="M501.102 424.077C501.102 424.133 501.056 424.179 501 424.179C500.944 424.179 500.898 424.133 500.898 424.077C500.898 424.021 500.944 423.975 501 423.975C501.056 423.975 501.102 424.021 501.102 424.077Z" fill="white"/>
<path d="M78.127 462.539C78.127 462.651 78.0357 462.742 77.923 462.742C77.8104 462.742 77.7191 462.651 77.7191 462.539C77.7191 462.426 77.8104 462.335 77.923 462.335C78.0357 462.335 78.127 462.426 78.127 462.539Z" fill="white"/>
<path d="M117.302 462.539C117.302 463.045 116.891 463.456 116.385 463.456C115.878 463.456 115.467 463.045 115.467 462.539C115.467 462.032 115.878 461.621 116.385 461.621C116.891 461.621 117.302 462.032 117.302 462.539Z" fill="white"/>
<path d="M157.089 462.539C157.089 463.777 156.085 464.782 154.846 464.782C153.607 464.782 152.603 463.777 152.603 462.539C152.603 461.3 153.607 460.295 154.846 460.295C156.085 460.295 157.089 461.3 157.089 462.539Z" fill="white"/>
<path d="M197.029 462.539C197.029 464.594 195.363 466.26 193.308 466.26C191.252 466.26 189.586 464.594 189.586 462.539C189.586 460.483 191.252 458.817 193.308 458.817C195.363 458.817 197.029 460.483 197.029 462.539Z" fill="white"/>
<path d="M236.765 462.539C236.765 465.298 234.528 467.535 231.769 467.535C229.01 467.535 226.773 465.298 226.773 462.539C226.773 459.779 229.01 457.542 231.769 457.542C234.528 457.542 236.765 459.779 236.765 462.539Z" fill="white"/>
<path d="M275.635 462.539C275.635 465.523 273.215 467.942 270.231 467.942C267.246 467.942 264.827 465.523 264.827 462.539C264.827 459.554 267.246 457.135 270.231 457.135C273.215 457.135 275.635 459.554 275.635 462.539Z" fill="white"/>
<path d="M313.688 462.539C313.688 465.298 311.452 467.535 308.692 467.535C305.933 467.535 303.696 465.298 303.696 462.539C303.696 459.779 305.933 457.542 308.692 457.542C311.452 457.542 313.688 459.779 313.688 462.539Z" fill="white"/>
<path d="M350.875 462.539C350.875 464.594 349.209 466.26 347.154 466.26C345.098 466.26 343.432 464.594 343.432 462.539C343.432 460.483 345.098 458.817 347.154 458.817C349.209 458.817 350.875 460.483 350.875 462.539Z" fill="white"/>
<path d="M387.859 462.539C387.859 463.777 386.854 464.782 385.615 464.782C384.377 464.782 383.372 463.777 383.372 462.539C383.372 461.3 384.377 460.295 385.615 460.295C386.854 460.295 387.859 461.3 387.859 462.539Z" fill="white"/>
<path d="M424.995 462.539C424.995 463.045 424.584 463.456 424.077 463.456C423.57 463.456 423.159 463.045 423.159 462.539C423.159 462.032 423.57 461.621 424.077 461.621C424.584 461.621 424.995 462.032 424.995 462.539Z" fill="white"/>
<path d="M462.742 462.539C462.742 462.651 462.651 462.742 462.538 462.742C462.426 462.742 462.335 462.651 462.335 462.539C462.335 462.426 462.426 462.335 462.538 462.335C462.651 462.335 462.742 462.426 462.742 462.539Z" fill="white"/>
<path d="M116.487 501C116.487 501.056 116.441 501.102 116.385 501.102C116.328 501.102 116.283 501.056 116.283 501C116.283 500.944 116.328 500.898 116.385 500.898C116.441 500.898 116.487 500.944 116.487 501Z" fill="white"/>
<path d="M155.305 501C155.305 501.254 155.1 501.459 154.846 501.459C154.593 501.459 154.387 501.254 154.387 501C154.387 500.747 154.593 500.541 154.846 500.541C155.1 500.541 155.305 500.747 155.305 501Z" fill="white"/>
<path d="M194.276 501C194.276 501.535 193.843 501.969 193.308 501.969C192.773 501.969 192.339 501.535 192.339 501C192.339 500.465 192.773 500.031 193.308 500.031C193.843 500.031 194.276 500.465 194.276 501Z" fill="white"/>
<path d="M233.248 501C233.248 501.817 232.586 502.479 231.769 502.479C230.953 502.479 230.291 501.817 230.291 501C230.291 500.184 230.953 499.522 231.769 499.522C232.586 499.522 233.248 500.184 233.248 501Z" fill="white"/>
<path d="M271.862 501C271.862 501.901 271.132 502.632 270.231 502.632C269.33 502.632 268.599 501.901 268.599 501C268.599 500.099 269.33 499.369 270.231 499.369C271.132 499.369 271.862 500.099 271.862 501Z" fill="white"/>
<path d="M310.222 501C310.222 501.845 309.537 502.53 308.692 502.53C307.848 502.53 307.163 501.845 307.163 501C307.163 500.155 307.848 499.471 308.692 499.471C309.537 499.471 310.222 500.155 310.222 501Z" fill="white"/>
<path d="M348.122 501C348.122 501.535 347.689 501.969 347.154 501.969C346.619 501.969 346.185 501.535 346.185 501C346.185 500.465 346.619 500.031 347.154 500.031C347.689 500.031 348.122 500.465 348.122 501Z" fill="white"/>
<path d="M386.074 501C386.074 501.254 385.869 501.459 385.615 501.459C385.362 501.459 385.157 501.254 385.157 501C385.157 500.747 385.362 500.541 385.615 500.541C385.869 500.541 386.074 500.747 386.074 501Z" fill="white"/>
<path d="M424.179 501C424.179 501.056 424.133 501.102 424.077 501.102C424.021 501.102 423.975 501.056 423.975 501C423.975 500.944 424.021 500.898 424.077 500.898C424.133 500.898 424.179 500.944 424.179 501Z" fill="white"/>
<path d="M193.359 539.462C193.359 539.49 193.336 539.513 193.308 539.513C193.28 539.513 193.257 539.49 193.257 539.462C193.257 539.434 193.28 539.411 193.308 539.411C193.336 539.411 193.359 539.434 193.359 539.462Z" fill="white"/>
<path d="M231.871 539.462C231.871 539.518 231.826 539.564 231.769 539.564C231.713 539.564 231.667 539.518 231.667 539.462C231.667 539.405 231.713 539.36 231.769 539.36C231.826 539.36 231.871 539.405 231.871 539.462Z" fill="white"/>
<path d="M270.384 539.462C270.384 539.546 270.315 539.615 270.231 539.615C270.146 539.615 270.078 539.546 270.078 539.462C270.078 539.377 270.146 539.309 270.231 539.309C270.315 539.309 270.384 539.377 270.384 539.462Z" fill="white"/>
<path d="M308.794 539.462C308.794 539.518 308.749 539.564 308.692 539.564C308.636 539.564 308.59 539.518 308.59 539.462C308.59 539.405 308.636 539.36 308.692 539.36C308.749 539.36 308.794 539.405 308.794 539.462Z" fill="white"/>
<path d="M347.205 539.462C347.205 539.49 347.182 539.513 347.154 539.513C347.126 539.513 347.103 539.49 347.103 539.462C347.103 539.434 347.126 539.411 347.154 539.411C347.182 539.411 347.205 539.434 347.205 539.462Z" fill="white"/>
</svg>
