<svg width="119" height="12" viewBox="0 0 119 12" fill="none" xmlns="http://www.w3.org/2000/svg">
<path d="M3.432 9.108C2.84 9.108 2.32 8.924 1.872 8.556C1.432 8.188 1.088 7.672 0.84 7.008C0.6 6.336 0.48 5.544 0.48 4.632C0.48 3.752 0.612 2.984 0.876 2.328C1.148 1.664 1.508 1.152 1.956 0.792C2.412 0.424 2.916 0.24 3.468 0.24C3.796 0.24 4.084 0.272 4.332 0.335999C4.58 0.391999 4.8 0.468 4.992 0.564C5.088 0.62 5.136 0.704 5.136 0.816L5.172 2.64C5.172 2.776 5.124 2.844 5.028 2.844C4.94 2.844 4.884 2.792 4.86 2.688L4.74 2.244C4.572 1.62 4.376 1.188 4.152 0.948C3.936 0.708 3.676 0.588 3.372 0.588C2.812 0.588 2.344 0.936 1.968 1.632C1.6 2.32 1.416 3.32 1.416 4.632C1.416 5.528 1.508 6.284 1.692 6.9C1.884 7.516 2.128 7.98 2.424 8.292C2.728 8.604 3.048 8.76 3.384 8.76C3.744 8.76 4.032 8.648 4.248 8.424C4.472 8.2 4.66 7.768 4.812 7.128L4.956 6.54C4.98 6.42 5.044 6.368 5.148 6.384C5.236 6.4 5.28 6.468 5.28 6.588L5.232 8.532C5.232 8.644 5.18 8.728 5.076 8.784C4.884 8.88 4.656 8.956 4.392 9.012C4.136 9.076 3.816 9.108 3.432 9.108ZM8.14163 9.108C7.73363 9.108 7.36563 8.972 7.03763 8.7C6.71763 8.42 6.46163 8.04 6.26963 7.56C6.07763 7.08 5.98163 6.544 5.98163 5.952C5.98163 5.36 6.07763 4.828 6.26963 4.356C6.46163 3.884 6.72163 3.508 7.04963 3.228C7.37763 2.948 7.74163 2.808 8.14163 2.808C8.54963 2.808 8.91363 2.948 9.23363 3.228C9.56163 3.508 9.82163 3.884 10.0136 4.356C10.2056 4.828 10.3016 5.36 10.3016 5.952C10.3016 6.544 10.2056 7.08 10.0136 7.56C9.82963 8.04 9.57363 8.42 9.24563 8.7C8.91763 8.972 8.54963 9.108 8.14163 9.108ZM8.14163 8.808C8.97363 8.808 9.38963 7.856 9.38963 5.952C9.38963 4.056 8.97363 3.108 8.14163 3.108C7.30963 3.108 6.89363 4.056 6.89363 5.952C6.89363 7.856 7.30963 8.808 8.14163 8.808ZM10.9041 9C10.7841 9 10.7241 8.956 10.7241 8.868C10.7241 8.796 10.7761 8.748 10.8801 8.724L11.0241 8.7C11.1921 8.668 11.3001 8.62 11.3481 8.556C11.4041 8.484 11.4321 8.364 11.4321 8.196V4.164C11.4321 4.02 11.4081 3.924 11.3601 3.876C11.3201 3.82 11.2441 3.784 11.1321 3.768L10.8801 3.732C10.7761 3.724 10.7241 3.68 10.7241 3.6C10.7241 3.536 10.7881 3.492 10.9161 3.468C11.1641 3.428 11.3521 3.364 11.4801 3.276C11.6161 3.188 11.7561 3.08 11.9001 2.952C11.9721 2.88 12.0321 2.844 12.0801 2.844C12.1521 2.844 12.1881 2.892 12.1881 2.988V3.528C12.1881 3.6 12.2121 3.648 12.2601 3.672C12.3161 3.688 12.3761 3.664 12.4401 3.6C12.7601 3.296 13.0401 3.088 13.2801 2.976C13.5281 2.864 13.7881 2.808 14.0601 2.808C14.4201 2.808 14.7081 2.936 14.9241 3.192C15.1401 3.44 15.2481 3.808 15.2481 4.296V8.196C15.2481 8.364 15.2721 8.484 15.3201 8.556C15.3761 8.62 15.4881 8.664 15.6561 8.688L15.9201 8.724C16.0081 8.74 16.0521 8.788 16.0521 8.868C16.0521 8.956 16.0041 9 15.9081 9H13.8921C13.7801 9 13.7241 8.956 13.7241 8.868C13.7241 8.788 13.7681 8.74 13.8561 8.724L14.0241 8.7C14.1921 8.676 14.3001 8.628 14.3481 8.556C14.4041 8.484 14.4321 8.364 14.4321 8.196V4.428C14.4321 4.036 14.3601 3.76 14.2161 3.6C14.0721 3.44 13.8681 3.36 13.6041 3.36C13.3481 3.36 13.1161 3.436 12.9081 3.588C12.7081 3.732 12.5481 3.928 12.4281 4.176C12.3081 4.416 12.2481 4.684 12.2481 4.98V8.196C12.2481 8.364 12.2721 8.484 12.3201 8.556C12.3761 8.628 12.4881 8.672 12.6561 8.688L12.9801 8.724C13.0681 8.74 13.1121 8.784 13.1121 8.856C13.1121 8.952 13.0521 9 12.9321 9H10.9041ZM17.8848 9.108C17.6048 9.108 17.3728 9.012 17.1888 8.82C17.0128 8.62 16.9248 8.296 16.9248 7.848V3.36C16.9248 3.264 16.8768 3.216 16.7808 3.216H16.4328C16.3048 3.216 16.2408 3.168 16.2408 3.072C16.2408 3.008 16.2768 2.952 16.3488 2.904C16.6128 2.72 16.8248 2.524 16.9848 2.316C17.1448 2.1 17.2848 1.808 17.4048 1.44C17.4608 1.272 17.5288 1.188 17.6088 1.188C17.6968 1.188 17.7408 1.252 17.7408 1.38V2.712C17.7408 2.824 17.7968 2.88 17.9088 2.88H18.6888C18.8168 2.88 18.8808 2.936 18.8808 3.048C18.8808 3.16 18.8168 3.216 18.6888 3.216H17.9088C17.7968 3.216 17.7408 3.272 17.7408 3.384V7.86C17.7408 8.036 17.7688 8.176 17.8248 8.28C17.8808 8.376 17.9848 8.424 18.1368 8.424C18.3048 8.424 18.4408 8.34 18.5448 8.172C18.6568 8.004 18.7288 7.732 18.7608 7.356C18.7768 7.244 18.8288 7.188 18.9168 7.188C19.0128 7.188 19.0608 7.248 19.0608 7.368C19.0368 7.984 18.9088 8.428 18.6768 8.7C18.4528 8.972 18.1888 9.108 17.8848 9.108ZM21.0143 3.648C21.3423 3.088 21.7383 2.808 22.2023 2.808C22.4663 2.808 22.6623 2.888 22.7903 3.048C22.9183 3.2 22.9823 3.372 22.9823 3.564C22.9823 3.716 22.9423 3.84 22.8623 3.936C22.7903 4.032 22.6743 4.08 22.5143 4.08C22.3863 4.08 22.2903 4.052 22.2263 3.996C22.1703 3.932 22.1223 3.86 22.0823 3.78C22.0503 3.7 22.0103 3.632 21.9623 3.576C21.9143 3.512 21.8343 3.48 21.7223 3.48C21.5783 3.48 21.4423 3.568 21.3143 3.744C21.1863 3.912 21.0783 4.14 20.9903 4.428C20.9103 4.716 20.8703 5.044 20.8703 5.412V8.196C20.8703 8.364 20.8943 8.484 20.9423 8.556C20.9983 8.628 21.1103 8.672 21.2783 8.688L21.6023 8.724C21.6903 8.74 21.7343 8.784 21.7343 8.856C21.7343 8.952 21.6743 9 21.5543 9H19.5263C19.4063 9 19.3463 8.956 19.3463 8.868C19.3463 8.796 19.3983 8.748 19.5023 8.724L19.6463 8.7C19.8143 8.668 19.9223 8.62 19.9703 8.556C20.0263 8.484 20.0543 8.364 20.0543 8.196V4.164C20.0543 4.02 20.0303 3.924 19.9823 3.876C19.9423 3.82 19.8663 3.784 19.7543 3.768L19.5023 3.732C19.3983 3.724 19.3463 3.68 19.3463 3.6C19.3463 3.536 19.4103 3.492 19.5383 3.468C19.7863 3.428 19.9743 3.364 20.1023 3.276C20.2383 3.188 20.3783 3.08 20.5223 2.952C20.5943 2.88 20.6543 2.844 20.7023 2.844C20.7743 2.844 20.8103 2.892 20.8103 2.988V3.636C20.8103 3.692 20.8343 3.728 20.8823 3.744C20.9303 3.752 20.9743 3.72 21.0143 3.648ZM24.2946 1.74C24.1266 1.74 23.9826 1.68 23.8626 1.56C23.7506 1.44 23.6946 1.288 23.6946 1.104C23.6946 0.919999 23.7506 0.771999 23.8626 0.659999C23.9826 0.539999 24.1266 0.48 24.2946 0.48C24.4626 0.48 24.6026 0.539999 24.7146 0.659999C24.8266 0.771999 24.8826 0.919999 24.8826 1.104C24.8826 1.288 24.8266 1.44 24.7146 1.56C24.6026 1.68 24.4626 1.74 24.2946 1.74ZM23.2866 9C23.1666 9 23.1066 8.956 23.1066 8.868C23.1066 8.796 23.1586 8.748 23.2626 8.724L23.4066 8.7C23.6066 8.668 23.7346 8.62 23.7906 8.556C23.8466 8.484 23.8746 8.364 23.8746 8.196V4.164C23.8746 4.02 23.8506 3.924 23.8026 3.876C23.7626 3.82 23.6866 3.784 23.5746 3.768L23.3226 3.732C23.2186 3.724 23.1666 3.68 23.1666 3.6C23.1666 3.536 23.2306 3.492 23.3586 3.468C23.6066 3.428 23.8066 3.364 23.9586 3.276C24.1106 3.188 24.2586 3.08 24.4026 2.952C24.4746 2.88 24.5346 2.844 24.5826 2.844C24.6546 2.844 24.6906 2.892 24.6906 2.988V8.196C24.6906 8.364 24.7146 8.484 24.7626 8.556C24.8106 8.628 24.9026 8.672 25.0386 8.688L25.3386 8.724C25.4266 8.74 25.4706 8.784 25.4706 8.856C25.4706 8.952 25.4106 9 25.2906 9H23.2866ZM28.0104 9.108C27.6824 9.108 27.3664 9.004 27.0624 8.796C26.8864 8.676 26.7264 8.708 26.5824 8.892C26.5024 8.98 26.4424 9.036 26.4024 9.06C26.3624 9.092 26.3224 9.108 26.2824 9.108C26.1944 9.108 26.1624 9.052 26.1864 8.94C26.2184 8.756 26.2424 8.52 26.2584 8.232C26.2744 7.944 26.2824 7.56 26.2824 7.08V1.32C26.2824 1.176 26.2584 1.08 26.2104 1.032C26.1704 0.976 26.0944 0.94 25.9824 0.924L25.7304 0.887999C25.6424 0.872 25.5984 0.824 25.5984 0.744C25.5984 0.664 25.6424 0.616 25.7304 0.599999C25.9544 0.552 26.1424 0.496 26.2944 0.431999C26.4464 0.367999 26.5744 0.303999 26.6784 0.24C26.8064 0.16 26.9024 0.12 26.9664 0.12C27.0544 0.12 27.0984 0.184 27.0984 0.312V3.276C27.0984 3.34 27.1224 3.384 27.1704 3.408C27.2264 3.424 27.2864 3.4 27.3504 3.336C27.6944 2.984 28.0704 2.808 28.4784 2.808C28.8464 2.808 29.1704 2.932 29.4504 3.18C29.7384 3.42 29.9624 3.756 30.1224 4.188C30.2904 4.62 30.3744 5.128 30.3744 5.712C30.3744 6.376 30.2704 6.964 30.0624 7.476C29.8544 7.988 29.5704 8.388 29.2104 8.676C28.8584 8.964 28.4584 9.108 28.0104 9.108ZM27.9864 8.808C28.4344 8.808 28.7944 8.544 29.0664 8.016C29.3464 7.488 29.4864 6.776 29.4864 5.88C29.4864 5.056 29.3664 4.428 29.1264 3.996C28.8864 3.564 28.5464 3.348 28.1064 3.348C27.8344 3.348 27.5984 3.46 27.3984 3.684C27.1984 3.908 27.0984 4.22 27.0984 4.62V7.644C27.0984 8.004 27.1784 8.288 27.3384 8.496C27.5064 8.704 27.7224 8.808 27.9864 8.808ZM32.8507 9.108C32.6508 9.108 32.4588 9.064 32.2747 8.976C32.0907 8.888 31.9387 8.748 31.8187 8.556C31.6987 8.364 31.6387 8.108 31.6387 7.788V3.612C31.6387 3.468 31.6147 3.368 31.5667 3.312C31.5267 3.256 31.4507 3.224 31.3387 3.216L31.1347 3.192C30.9987 3.176 30.9307 3.124 30.9307 3.036C30.9307 2.932 31.0067 2.88 31.1587 2.88H32.2747C32.3948 2.88 32.4548 2.94 32.4548 3.06V7.536C32.4548 7.904 32.5228 8.168 32.6587 8.328C32.8027 8.48 32.9988 8.556 33.2468 8.556C33.4948 8.556 33.7148 8.488 33.9067 8.352C34.0988 8.208 34.2508 8.02 34.3628 7.788C34.4828 7.548 34.5428 7.288 34.5428 7.008V3.612C34.5428 3.468 34.5188 3.368 34.4708 3.312C34.4308 3.256 34.3548 3.224 34.2427 3.216L34.0388 3.192C33.9028 3.176 33.8348 3.124 33.8348 3.036C33.8348 2.932 33.9108 2.88 34.0628 2.88H35.1788C35.2988 2.88 35.3588 2.94 35.3588 3.06V7.716C35.3588 7.86 35.3788 7.96 35.4188 8.016C35.4668 8.064 35.5468 8.096 35.6588 8.112L35.9108 8.148C36.0148 8.156 36.0668 8.196 36.0668 8.268C36.0668 8.34 36.0028 8.388 35.8748 8.412C35.6268 8.444 35.4268 8.508 35.2748 8.604C35.1308 8.7 35.0028 8.816 34.8908 8.952C34.8188 9.024 34.7588 9.06 34.7107 9.06C34.6387 9.06 34.6027 9.012 34.6027 8.916V8.364C34.6027 8.3 34.5788 8.264 34.5308 8.256C34.4908 8.24 34.4468 8.256 34.3988 8.304C34.1028 8.6 33.8388 8.808 33.6068 8.928C33.3828 9.048 33.1308 9.108 32.8507 9.108ZM37.952 9.108C37.672 9.108 37.44 9.012 37.256 8.82C37.08 8.62 36.992 8.296 36.992 7.848V3.36C36.992 3.264 36.944 3.216 36.848 3.216H36.5C36.372 3.216 36.308 3.168 36.308 3.072C36.308 3.008 36.344 2.952 36.416 2.904C36.68 2.72 36.892 2.524 37.052 2.316C37.212 2.1 37.352 1.808 37.472 1.44C37.528 1.272 37.596 1.188 37.676 1.188C37.764 1.188 37.808 1.252 37.808 1.38V2.712C37.808 2.824 37.864 2.88 37.976 2.88H38.756C38.884 2.88 38.948 2.936 38.948 3.048C38.948 3.16 38.884 3.216 38.756 3.216H37.976C37.864 3.216 37.808 3.272 37.808 3.384V7.86C37.808 8.036 37.836 8.176 37.892 8.28C37.948 8.376 38.052 8.424 38.204 8.424C38.372 8.424 38.508 8.34 38.612 8.172C38.724 8.004 38.796 7.732 38.828 7.356C38.844 7.244 38.896 7.188 38.984 7.188C39.08 7.188 39.128 7.248 39.128 7.368C39.104 7.984 38.976 8.428 38.744 8.7C38.52 8.972 38.256 9.108 37.952 9.108ZM40.6014 1.74C40.4334 1.74 40.2894 1.68 40.1694 1.56C40.0574 1.44 40.0014 1.288 40.0014 1.104C40.0014 0.919999 40.0574 0.771999 40.1694 0.659999C40.2894 0.539999 40.4334 0.48 40.6014 0.48C40.7694 0.48 40.9094 0.539999 41.0214 0.659999C41.1334 0.771999 41.1894 0.919999 41.1894 1.104C41.1894 1.288 41.1334 1.44 41.0214 1.56C40.9094 1.68 40.7694 1.74 40.6014 1.74ZM39.5934 9C39.4734 9 39.4134 8.956 39.4134 8.868C39.4134 8.796 39.4654 8.748 39.5694 8.724L39.7134 8.7C39.9134 8.668 40.0414 8.62 40.0974 8.556C40.1534 8.484 40.1814 8.364 40.1814 8.196V4.164C40.1814 4.02 40.1574 3.924 40.1094 3.876C40.0694 3.82 39.9934 3.784 39.8814 3.768L39.6294 3.732C39.5254 3.724 39.4734 3.68 39.4734 3.6C39.4734 3.536 39.5374 3.492 39.6654 3.468C39.9134 3.428 40.1134 3.364 40.2654 3.276C40.4174 3.188 40.5654 3.08 40.7094 2.952C40.7814 2.88 40.8414 2.844 40.8894 2.844C40.9614 2.844 40.9974 2.892 40.9974 2.988V8.196C40.9974 8.364 41.0214 8.484 41.0694 8.556C41.1174 8.628 41.2094 8.672 41.3454 8.688L41.6454 8.724C41.7334 8.74 41.7774 8.784 41.7774 8.856C41.7774 8.952 41.7174 9 41.5974 9H39.5934ZM42.2053 9C42.0853 9 42.0253 8.956 42.0253 8.868C42.0253 8.796 42.0773 8.748 42.1813 8.724L42.3253 8.7C42.4933 8.668 42.6013 8.62 42.6493 8.556C42.7053 8.484 42.7333 8.364 42.7333 8.196V4.164C42.7333 4.02 42.7093 3.924 42.6613 3.876C42.6213 3.82 42.5453 3.784 42.4333 3.768L42.1813 3.732C42.0773 3.724 42.0253 3.68 42.0253 3.6C42.0253 3.536 42.0893 3.492 42.2173 3.468C42.4653 3.428 42.6533 3.364 42.7813 3.276C42.9173 3.188 43.0573 3.08 43.2013 2.952C43.2733 2.88 43.3333 2.844 43.3813 2.844C43.4533 2.844 43.4893 2.892 43.4893 2.988V3.528C43.4893 3.6 43.5133 3.648 43.5613 3.672C43.6173 3.688 43.6773 3.664 43.7413 3.6C44.0613 3.296 44.3413 3.088 44.5813 2.976C44.8293 2.864 45.0893 2.808 45.3613 2.808C45.7213 2.808 46.0093 2.936 46.2253 3.192C46.4413 3.44 46.5493 3.808 46.5493 4.296V8.196C46.5493 8.364 46.5733 8.484 46.6213 8.556C46.6773 8.62 46.7893 8.664 46.9573 8.688L47.2213 8.724C47.3093 8.74 47.3533 8.788 47.3533 8.868C47.3533 8.956 47.3053 9 47.2093 9H45.1933C45.0813 9 45.0253 8.956 45.0253 8.868C45.0253 8.788 45.0693 8.74 45.1573 8.724L45.3253 8.7C45.4933 8.676 45.6013 8.628 45.6493 8.556C45.7053 8.484 45.7333 8.364 45.7333 8.196V4.428C45.7333 4.036 45.6613 3.76 45.5173 3.6C45.3733 3.44 45.1693 3.36 44.9053 3.36C44.6493 3.36 44.4173 3.436 44.2093 3.588C44.0093 3.732 43.8493 3.928 43.7293 4.176C43.6093 4.416 43.5493 4.684 43.5493 4.98V8.196C43.5493 8.364 43.5733 8.484 43.6213 8.556C43.6773 8.628 43.7893 8.672 43.9573 8.688L44.2813 8.724C44.3693 8.74 44.4133 8.784 44.4133 8.856C44.4133 8.952 44.3533 9 44.2333 9H42.2053ZM49.558 11.58C48.95 11.58 48.47 11.456 48.118 11.208C47.766 10.968 47.59 10.676 47.59 10.332C47.59 10.188 47.61 10.056 47.65 9.936C47.69 9.824 47.774 9.692 47.902 9.54C48.038 9.388 48.242 9.192 48.514 8.952C48.61 8.864 48.658 8.784 48.658 8.712C48.658 8.632 48.61 8.572 48.514 8.532C48.226 8.412 48.054 8.26 47.998 8.076C47.942 7.884 48.01 7.708 48.202 7.548L49.066 6.804C49.162 6.724 49.158 6.656 49.054 6.6C48.726 6.44 48.466 6.192 48.274 5.856C48.082 5.52 47.986 5.16 47.986 4.776C47.986 4.408 48.066 4.076 48.226 3.78C48.386 3.484 48.602 3.248 48.874 3.072C49.146 2.896 49.45 2.808 49.786 2.808C49.978 2.808 50.162 2.84 50.338 2.904C50.45 2.944 50.518 2.908 50.542 2.796C50.614 2.492 50.746 2.256 50.938 2.088C51.138 1.912 51.334 1.824 51.526 1.824C51.71 1.824 51.858 1.88 51.97 1.992C52.09 2.096 52.15 2.228 52.15 2.388C52.15 2.524 52.11 2.632 52.03 2.712C51.95 2.792 51.85 2.832 51.73 2.832C51.626 2.832 51.55 2.812 51.502 2.772C51.454 2.732 51.41 2.692 51.37 2.652C51.33 2.612 51.266 2.592 51.178 2.592C50.986 2.592 50.866 2.696 50.818 2.904C50.794 2.984 50.794 3.052 50.818 3.108C50.85 3.164 50.894 3.22 50.95 3.276C51.142 3.46 51.29 3.684 51.394 3.948C51.506 4.212 51.562 4.504 51.562 4.824C51.562 5.208 51.482 5.552 51.322 5.856C51.17 6.16 50.958 6.4 50.686 6.576C50.422 6.752 50.122 6.84 49.786 6.84C49.642 6.84 49.518 6.872 49.414 6.936C49.31 6.992 49.206 7.076 49.102 7.188L48.898 7.416C48.794 7.544 48.762 7.668 48.802 7.788C48.85 7.9 48.962 7.956 49.138 7.956H50.17C50.746 7.956 51.202 8.1 51.538 8.388C51.874 8.668 52.042 9.056 52.042 9.552C52.042 9.944 51.93 10.292 51.706 10.596C51.482 10.9 51.182 11.14 50.806 11.316C50.438 11.492 50.022 11.58 49.558 11.58ZM49.774 6.54C50.062 6.54 50.29 6.384 50.458 6.072C50.626 5.76 50.71 5.336 50.71 4.8C50.71 4.28 50.622 3.864 50.446 3.552C50.278 3.232 50.054 3.072 49.774 3.072C49.494 3.072 49.266 3.232 49.09 3.552C48.922 3.864 48.838 4.28 48.838 4.8C48.838 5.336 48.922 5.76 49.09 6.072C49.258 6.384 49.486 6.54 49.774 6.54ZM49.702 11.316C49.99 11.316 50.254 11.252 50.494 11.124C50.734 10.996 50.922 10.816 51.058 10.584C51.202 10.36 51.274 10.104 51.274 9.816C51.274 9.456 51.166 9.18 50.95 8.988C50.742 8.788 50.446 8.688 50.062 8.688H49.786C49.538 8.688 49.35 8.712 49.222 8.76C49.102 8.808 48.986 8.892 48.874 9.012C48.626 9.276 48.47 9.488 48.406 9.648C48.342 9.808 48.31 9.972 48.31 10.14C48.31 10.492 48.43 10.776 48.67 10.992C48.918 11.208 49.262 11.316 49.702 11.316ZM55.9332 9.108C55.6532 9.108 55.4212 9.012 55.2372 8.82C55.0612 8.62 54.9732 8.296 54.9732 7.848V3.36C54.9732 3.264 54.9252 3.216 54.8292 3.216H54.4812C54.3532 3.216 54.2892 3.168 54.2892 3.072C54.2892 3.008 54.3252 2.952 54.3972 2.904C54.6612 2.72 54.8732 2.524 55.0332 2.316C55.1932 2.1 55.3332 1.808 55.4532 1.44C55.5092 1.272 55.5772 1.188 55.6572 1.188C55.7452 1.188 55.7892 1.252 55.7892 1.38V2.712C55.7892 2.824 55.8452 2.88 55.9572 2.88H56.7372C56.8652 2.88 56.9292 2.936 56.9292 3.048C56.9292 3.16 56.8652 3.216 56.7372 3.216H55.9572C55.8452 3.216 55.7892 3.272 55.7892 3.384V7.86C55.7892 8.036 55.8172 8.176 55.8732 8.28C55.9292 8.376 56.0332 8.424 56.1852 8.424C56.3532 8.424 56.4892 8.34 56.5932 8.172C56.7052 8.004 56.7772 7.732 56.8092 7.356C56.8252 7.244 56.8772 7.188 56.9652 7.188C57.0612 7.188 57.1092 7.248 57.1092 7.368C57.0852 7.984 56.9572 8.428 56.7252 8.7C56.5012 8.972 56.2372 9.108 55.9332 9.108ZM59.6507 9.108C59.2427 9.108 58.8747 8.972 58.5467 8.7C58.2267 8.42 57.9707 8.04 57.7787 7.56C57.5867 7.08 57.4907 6.544 57.4907 5.952C57.4907 5.36 57.5867 4.828 57.7787 4.356C57.9707 3.884 58.2307 3.508 58.5587 3.228C58.8867 2.948 59.2507 2.808 59.6507 2.808C60.0587 2.808 60.4227 2.948 60.7427 3.228C61.0707 3.508 61.3307 3.884 61.5227 4.356C61.7147 4.828 61.8107 5.36 61.8107 5.952C61.8107 6.544 61.7147 7.08 61.5227 7.56C61.3387 8.04 61.0827 8.42 60.7547 8.7C60.4267 8.972 60.0587 9.108 59.6507 9.108ZM59.6507 8.808C60.4827 8.808 60.8987 7.856 60.8987 5.952C60.8987 4.056 60.4827 3.108 59.6507 3.108C58.8187 3.108 58.4027 4.056 58.4027 5.952C58.4027 7.856 58.8187 8.808 59.6507 8.808ZM66.1682 11.58C65.5602 11.58 65.0802 11.456 64.7282 11.208C64.3762 10.968 64.2002 10.676 64.2002 10.332C64.2002 10.188 64.2202 10.056 64.2602 9.936C64.3002 9.824 64.3842 9.692 64.5122 9.54C64.6482 9.388 64.8522 9.192 65.1242 8.952C65.2202 8.864 65.2682 8.784 65.2682 8.712C65.2682 8.632 65.2202 8.572 65.1242 8.532C64.8362 8.412 64.6642 8.26 64.6082 8.076C64.5522 7.884 64.6202 7.708 64.8122 7.548L65.6762 6.804C65.7722 6.724 65.7682 6.656 65.6642 6.6C65.3362 6.44 65.0762 6.192 64.8842 5.856C64.6922 5.52 64.5962 5.16 64.5962 4.776C64.5962 4.408 64.6762 4.076 64.8362 3.78C64.9962 3.484 65.2122 3.248 65.4842 3.072C65.7562 2.896 66.0602 2.808 66.3962 2.808C66.5882 2.808 66.7722 2.84 66.9482 2.904C67.0602 2.944 67.1282 2.908 67.1522 2.796C67.2242 2.492 67.3562 2.256 67.5482 2.088C67.7482 1.912 67.9442 1.824 68.1362 1.824C68.3202 1.824 68.4682 1.88 68.5802 1.992C68.7002 2.096 68.7602 2.228 68.7602 2.388C68.7602 2.524 68.7202 2.632 68.6402 2.712C68.5602 2.792 68.4602 2.832 68.3402 2.832C68.2362 2.832 68.1602 2.812 68.1122 2.772C68.0642 2.732 68.0202 2.692 67.9802 2.652C67.9402 2.612 67.8762 2.592 67.7882 2.592C67.5962 2.592 67.4762 2.696 67.4282 2.904C67.4042 2.984 67.4042 3.052 67.4282 3.108C67.4602 3.164 67.5042 3.22 67.5602 3.276C67.7522 3.46 67.9002 3.684 68.0042 3.948C68.1162 4.212 68.1722 4.504 68.1722 4.824C68.1722 5.208 68.0922 5.552 67.9322 5.856C67.7802 6.16 67.5682 6.4 67.2962 6.576C67.0322 6.752 66.7322 6.84 66.3962 6.84C66.2522 6.84 66.1282 6.872 66.0242 6.936C65.9202 6.992 65.8162 7.076 65.7122 7.188L65.5082 7.416C65.4042 7.544 65.3722 7.668 65.4122 7.788C65.4602 7.9 65.5722 7.956 65.7482 7.956H66.7802C67.3562 7.956 67.8122 8.1 68.1482 8.388C68.4842 8.668 68.6522 9.056 68.6522 9.552C68.6522 9.944 68.5402 10.292 68.3162 10.596C68.0922 10.9 67.7922 11.14 67.4162 11.316C67.0482 11.492 66.6322 11.58 66.1682 11.58ZM66.3842 6.54C66.6722 6.54 66.9002 6.384 67.0682 6.072C67.2362 5.76 67.3202 5.336 67.3202 4.8C67.3202 4.28 67.2322 3.864 67.0562 3.552C66.8882 3.232 66.6642 3.072 66.3842 3.072C66.1042 3.072 65.8762 3.232 65.7002 3.552C65.5322 3.864 65.4482 4.28 65.4482 4.8C65.4482 5.336 65.5322 5.76 65.7002 6.072C65.8682 6.384 66.0962 6.54 66.3842 6.54ZM66.3122 11.316C66.6002 11.316 66.8642 11.252 67.1042 11.124C67.3442 10.996 67.5322 10.816 67.6682 10.584C67.8122 10.36 67.8842 10.104 67.8842 9.816C67.8842 9.456 67.7762 9.18 67.5602 8.988C67.3522 8.788 67.0562 8.688 66.6722 8.688H66.3962C66.1482 8.688 65.9602 8.712 65.8322 8.76C65.7122 8.808 65.5962 8.892 65.4842 9.012C65.2362 9.276 65.0802 9.488 65.0162 9.648C64.9522 9.808 64.9202 9.972 64.9202 10.14C64.9202 10.492 65.0402 10.776 65.2802 10.992C65.5282 11.208 65.8722 11.316 66.3122 11.316ZM69.0403 9C68.9443 9 68.8963 8.956 68.8963 8.868C68.8963 8.788 68.9403 8.74 69.0283 8.724L69.1963 8.7C69.3643 8.676 69.4883 8.628 69.5683 8.556C69.6483 8.484 69.6883 8.364 69.6883 8.196V1.32C69.6883 1.176 69.6643 1.076 69.6163 1.02C69.5763 0.964 69.5003 0.931999 69.3883 0.924L69.1123 0.887999C69.0243 0.872 68.9803 0.824 68.9803 0.744C68.9803 0.664 69.0243 0.616 69.1123 0.599999C69.3363 0.552 69.5283 0.496 69.6883 0.431999C69.8483 0.367999 69.9803 0.303999 70.0843 0.24C70.2123 0.16 70.3083 0.12 70.3723 0.12C70.4603 0.12 70.5043 0.184 70.5043 0.312V8.196C70.5043 8.364 70.5283 8.484 70.5763 8.556C70.6323 8.62 70.7443 8.664 70.9123 8.688L71.1883 8.724C71.2763 8.74 71.3203 8.788 71.3203 8.868C71.3203 8.956 71.2723 9 71.1763 9H69.0403ZM73.813 9.108C73.405 9.108 73.037 8.972 72.709 8.7C72.389 8.42 72.133 8.04 71.941 7.56C71.749 7.08 71.653 6.544 71.653 5.952C71.653 5.36 71.749 4.828 71.941 4.356C72.133 3.884 72.393 3.508 72.721 3.228C73.049 2.948 73.413 2.808 73.813 2.808C74.221 2.808 74.585 2.948 74.905 3.228C75.233 3.508 75.493 3.884 75.685 4.356C75.877 4.828 75.973 5.36 75.973 5.952C75.973 6.544 75.877 7.08 75.685 7.56C75.501 8.04 75.245 8.42 74.917 8.7C74.589 8.972 74.221 9.108 73.813 9.108ZM73.813 8.808C74.645 8.808 75.061 7.856 75.061 5.952C75.061 4.056 74.645 3.108 73.813 3.108C72.981 3.108 72.565 4.056 72.565 5.952C72.565 7.856 72.981 8.808 73.813 8.808ZM78.6875 9.108C78.3595 9.108 78.0435 9.004 77.7395 8.796C77.5635 8.676 77.4035 8.708 77.2595 8.892C77.1795 8.98 77.1195 9.036 77.0795 9.06C77.0395 9.092 76.9995 9.108 76.9595 9.108C76.8715 9.108 76.8395 9.052 76.8635 8.94C76.8955 8.756 76.9195 8.52 76.9355 8.232C76.9515 7.944 76.9595 7.56 76.9595 7.08V1.32C76.9595 1.176 76.9355 1.08 76.8875 1.032C76.8475 0.976 76.7715 0.94 76.6595 0.924L76.4075 0.887999C76.3195 0.872 76.2755 0.824 76.2755 0.744C76.2755 0.664 76.3195 0.616 76.4075 0.599999C76.6315 0.552 76.8195 0.496 76.9715 0.431999C77.1235 0.367999 77.2515 0.303999 77.3555 0.24C77.4835 0.16 77.5795 0.12 77.6435 0.12C77.7315 0.12 77.7755 0.184 77.7755 0.312V3.276C77.7755 3.34 77.7995 3.384 77.8475 3.408C77.9035 3.424 77.9635 3.4 78.0275 3.336C78.3715 2.984 78.7475 2.808 79.1555 2.808C79.5235 2.808 79.8475 2.932 80.1275 3.18C80.4155 3.42 80.6395 3.756 80.7995 4.188C80.9675 4.62 81.0515 5.128 81.0515 5.712C81.0515 6.376 80.9475 6.964 80.7395 7.476C80.5315 7.988 80.2475 8.388 79.8875 8.676C79.5355 8.964 79.1355 9.108 78.6875 9.108ZM78.6635 8.808C79.1115 8.808 79.4715 8.544 79.7435 8.016C80.0235 7.488 80.1635 6.776 80.1635 5.88C80.1635 5.056 80.0435 4.428 79.8035 3.996C79.5635 3.564 79.2235 3.348 78.7835 3.348C78.5115 3.348 78.2755 3.46 78.0755 3.684C77.8755 3.908 77.7755 4.22 77.7755 4.62V7.644C77.7755 8.004 77.8555 8.288 78.0155 8.496C78.1835 8.704 78.3995 8.808 78.6635 8.808ZM82.9158 9.108C82.5798 9.108 82.3038 9.004 82.0878 8.796C81.8718 8.58 81.7638 8.296 81.7638 7.944C81.7638 7.6 81.8718 7.276 82.0878 6.972C82.3038 6.66 82.5998 6.38 82.9758 6.132C83.3518 5.884 83.7798 5.684 84.2598 5.532C84.3638 5.5 84.4158 5.432 84.4158 5.328V4.236C84.4158 3.852 84.3558 3.58 84.2358 3.42C84.1158 3.252 83.9518 3.168 83.7438 3.168C83.5438 3.168 83.3598 3.26 83.1918 3.444C83.0318 3.62 82.9158 3.92 82.8438 4.344C82.8038 4.6 82.7158 4.788 82.5798 4.908C82.4518 5.02 82.3198 5.076 82.1838 5.076C81.9598 5.076 81.8478 4.964 81.8478 4.74C81.8478 4.508 81.9118 4.28 82.0398 4.056C82.1758 3.824 82.3518 3.616 82.5678 3.432C82.7838 3.24 83.0198 3.088 83.2758 2.976C83.5318 2.864 83.7878 2.808 84.0438 2.808C84.8358 2.808 85.2318 3.268 85.2318 4.188V7.86C85.2318 8.196 85.3158 8.364 85.4838 8.364C85.5878 8.364 85.6838 8.296 85.7718 8.16C85.8598 8.016 85.9038 7.776 85.9038 7.44C85.9038 7.312 85.9558 7.248 86.0598 7.248C86.1558 7.248 86.2038 7.316 86.2038 7.452C86.2038 8.036 86.0998 8.46 85.8918 8.724C85.6918 8.98 85.4638 9.108 85.2078 9.108C85.0158 9.108 84.8638 9.032 84.7518 8.88C84.6398 8.72 84.5638 8.532 84.5238 8.316C84.5158 8.236 84.4798 8.196 84.4158 8.196C84.3598 8.188 84.3038 8.224 84.2478 8.304C84.0558 8.568 83.8598 8.768 83.6598 8.904C83.4598 9.04 83.2118 9.108 82.9158 9.108ZM83.2398 8.556C83.4478 8.556 83.6398 8.484 83.8158 8.34C83.9918 8.188 84.1358 7.988 84.2478 7.74C84.3598 7.492 84.4158 7.212 84.4158 6.9V6.024C84.4158 5.872 84.3318 5.828 84.1638 5.892C83.6758 6.068 83.2958 6.312 83.0238 6.624C82.7598 6.928 82.6278 7.296 82.6278 7.728C82.6278 8.28 82.8318 8.556 83.2398 8.556ZM86.4487 9C86.3527 9 86.3047 8.956 86.3047 8.868C86.3047 8.788 86.3487 8.74 86.4367 8.724L86.6047 8.7C86.7727 8.676 86.8967 8.628 86.9767 8.556C87.0567 8.484 87.0967 8.364 87.0967 8.196V1.32C87.0967 1.176 87.0727 1.076 87.0247 1.02C86.9847 0.964 86.9087 0.931999 86.7967 0.924L86.5207 0.887999C86.4327 0.872 86.3887 0.824 86.3887 0.744C86.3887 0.664 86.4327 0.616 86.5207 0.599999C86.7447 0.552 86.9367 0.496 87.0967 0.431999C87.2567 0.367999 87.3887 0.303999 87.4927 0.24C87.6207 0.16 87.7167 0.12 87.7807 0.12C87.8687 0.12 87.9127 0.184 87.9127 0.312V8.196C87.9127 8.364 87.9367 8.484 87.9847 8.556C88.0407 8.62 88.1527 8.664 88.3207 8.688L88.5967 8.724C88.6847 8.74 88.7287 8.788 88.7287 8.868C88.7287 8.956 88.6807 9 88.5847 9H86.4487ZM91.0885 9C90.9925 9 90.9445 8.956 90.9445 8.868C90.9445 8.788 90.9885 8.74 91.0765 8.724L91.2445 8.7C91.4125 8.676 91.5205 8.628 91.5685 8.556C91.6245 8.484 91.6525 8.364 91.6525 8.196V1.32C91.6525 1.176 91.6285 1.08 91.5805 1.032C91.5405 0.976 91.4645 0.94 91.3525 0.924L91.1005 0.887999C91.0125 0.872 90.9685 0.824 90.9685 0.744C90.9685 0.664 91.0125 0.616 91.1005 0.599999C91.3245 0.552 91.5125 0.496 91.6645 0.431999C91.8165 0.367999 91.9445 0.303999 92.0485 0.24C92.1765 0.16 92.2725 0.12 92.3365 0.12C92.4245 0.12 92.4685 0.184 92.4685 0.312V3.492C92.4685 3.564 92.4925 3.608 92.5405 3.624C92.5885 3.632 92.6485 3.604 92.7205 3.54C93.0245 3.26 93.2925 3.068 93.5245 2.964C93.7565 2.86 94.0005 2.808 94.2565 2.808C94.6325 2.808 94.9285 2.936 95.1445 3.192C95.3605 3.44 95.4685 3.808 95.4685 4.296V8.196C95.4685 8.364 95.4925 8.484 95.5405 8.556C95.5965 8.62 95.7085 8.664 95.8765 8.688L96.1405 8.724C96.2285 8.74 96.2725 8.788 96.2725 8.868C96.2725 8.956 96.2245 9 96.1285 9H94.1125C94.0005 9 93.9445 8.956 93.9445 8.868C93.9445 8.788 93.9885 8.74 94.0765 8.724L94.2445 8.7C94.4125 8.676 94.5205 8.628 94.5685 8.556C94.6245 8.484 94.6525 8.364 94.6525 8.196V4.428C94.6525 4.036 94.5805 3.76 94.4365 3.6C94.2925 3.44 94.0885 3.36 93.8245 3.36C93.5685 3.36 93.3365 3.436 93.1285 3.588C92.9285 3.732 92.7685 3.928 92.6485 4.176C92.5285 4.416 92.4685 4.684 92.4685 4.98V8.196C92.4685 8.364 92.4925 8.484 92.5405 8.556C92.5965 8.628 92.7085 8.672 92.8765 8.688L93.2005 8.724C93.2885 8.74 93.3325 8.788 93.3325 8.868C93.3325 8.956 93.2845 9 93.1885 9H91.0885ZM98.6452 9.108C98.2612 9.108 97.9172 8.98 97.6132 8.724C97.3092 8.468 97.0652 8.108 96.8812 7.644C96.7052 7.172 96.6172 6.628 96.6172 6.012C96.6172 5.38 96.7092 4.824 96.8932 4.344C97.0772 3.864 97.3292 3.488 97.6492 3.216C97.9692 2.944 98.3252 2.808 98.7172 2.808C99.1892 2.808 99.5692 3.004 99.8572 3.396C100.153 3.78 100.301 4.408 100.301 5.28C100.301 5.544 100.201 5.676 100.001 5.676H97.7212C97.5612 5.676 97.4812 5.768 97.4812 5.952C97.4812 6.8 97.6052 7.436 97.8532 7.86C98.1012 8.284 98.4172 8.496 98.8012 8.496C99.1052 8.496 99.3532 8.388 99.5452 8.172C99.7372 7.956 99.8932 7.592 100.013 7.08C100.037 6.992 100.089 6.948 100.169 6.948C100.265 6.948 100.301 7.028 100.277 7.188C100.149 7.9 99.9452 8.4 99.6652 8.688C99.3852 8.968 99.0452 9.108 98.6452 9.108ZM97.6852 5.376H98.8972C99.2812 5.376 99.4732 5.176 99.4732 4.776C99.4732 4.256 99.4092 3.848 99.2812 3.552C99.1532 3.256 98.9612 3.108 98.7052 3.108C98.3932 3.108 98.1292 3.288 97.9132 3.648C97.7052 4.008 97.5692 4.52 97.5052 5.184C97.4892 5.312 97.5492 5.376 97.6852 5.376ZM101.987 9.108C101.651 9.108 101.375 9.004 101.159 8.796C100.943 8.58 100.835 8.296 100.835 7.944C100.835 7.6 100.943 7.276 101.159 6.972C101.375 6.66 101.671 6.38 102.047 6.132C102.423 5.884 102.851 5.684 103.331 5.532C103.435 5.5 103.487 5.432 103.487 5.328V4.236C103.487 3.852 103.427 3.58 103.307 3.42C103.187 3.252 103.023 3.168 102.815 3.168C102.615 3.168 102.431 3.26 102.263 3.444C102.103 3.62 101.987 3.92 101.915 4.344C101.875 4.6 101.787 4.788 101.651 4.908C101.523 5.02 101.391 5.076 101.255 5.076C101.031 5.076 100.919 4.964 100.919 4.74C100.919 4.508 100.983 4.28 101.111 4.056C101.247 3.824 101.423 3.616 101.639 3.432C101.855 3.24 102.091 3.088 102.347 2.976C102.603 2.864 102.859 2.808 103.115 2.808C103.907 2.808 104.303 3.268 104.303 4.188V7.86C104.303 8.196 104.387 8.364 104.555 8.364C104.659 8.364 104.755 8.296 104.843 8.16C104.931 8.016 104.975 7.776 104.975 7.44C104.975 7.312 105.027 7.248 105.131 7.248C105.227 7.248 105.275 7.316 105.275 7.452C105.275 8.036 105.171 8.46 104.963 8.724C104.763 8.98 104.535 9.108 104.279 9.108C104.087 9.108 103.935 9.032 103.823 8.88C103.711 8.72 103.635 8.532 103.595 8.316C103.587 8.236 103.551 8.196 103.487 8.196C103.431 8.188 103.375 8.224 103.319 8.304C103.127 8.568 102.931 8.768 102.731 8.904C102.531 9.04 102.283 9.108 101.987 9.108ZM102.311 8.556C102.519 8.556 102.711 8.484 102.887 8.34C103.063 8.188 103.207 7.988 103.319 7.74C103.431 7.492 103.487 7.212 103.487 6.9V6.024C103.487 5.872 103.403 5.828 103.235 5.892C102.747 6.068 102.367 6.312 102.095 6.624C101.831 6.928 101.699 7.296 101.699 7.728C101.699 8.28 101.903 8.556 102.311 8.556ZM105.52 9C105.424 9 105.376 8.956 105.376 8.868C105.376 8.788 105.42 8.74 105.508 8.724L105.676 8.7C105.844 8.676 105.968 8.628 106.048 8.556C106.128 8.484 106.168 8.364 106.168 8.196V1.32C106.168 1.176 106.144 1.076 106.096 1.02C106.056 0.964 105.98 0.931999 105.868 0.924L105.592 0.887999C105.504 0.872 105.46 0.824 105.46 0.744C105.46 0.664 105.504 0.616 105.592 0.599999C105.816 0.552 106.008 0.496 106.168 0.431999C106.328 0.367999 106.46 0.303999 106.564 0.24C106.692 0.16 106.788 0.12 106.852 0.12C106.94 0.12 106.984 0.184 106.984 0.312V8.196C106.984 8.364 107.008 8.484 107.056 8.556C107.112 8.62 107.224 8.664 107.392 8.688L107.668 8.724C107.756 8.74 107.8 8.788 107.8 8.868C107.8 8.956 107.752 9 107.656 9H105.52ZM109.621 9.108C109.341 9.108 109.109 9.012 108.925 8.82C108.749 8.62 108.661 8.296 108.661 7.848V3.36C108.661 3.264 108.613 3.216 108.517 3.216H108.169C108.041 3.216 107.977 3.168 107.977 3.072C107.977 3.008 108.013 2.952 108.085 2.904C108.349 2.72 108.561 2.524 108.721 2.316C108.881 2.1 109.021 1.808 109.141 1.44C109.197 1.272 109.265 1.188 109.345 1.188C109.433 1.188 109.477 1.252 109.477 1.38V2.712C109.477 2.824 109.533 2.88 109.645 2.88H110.425C110.553 2.88 110.617 2.936 110.617 3.048C110.617 3.16 110.553 3.216 110.425 3.216H109.645C109.533 3.216 109.477 3.272 109.477 3.384V7.86C109.477 8.036 109.505 8.176 109.561 8.28C109.617 8.376 109.721 8.424 109.873 8.424C110.041 8.424 110.177 8.34 110.281 8.172C110.393 8.004 110.465 7.732 110.497 7.356C110.513 7.244 110.565 7.188 110.653 7.188C110.749 7.188 110.797 7.248 110.797 7.368C110.773 7.984 110.645 8.428 110.413 8.7C110.189 8.972 109.925 9.108 109.621 9.108ZM111.226 9C111.13 9 111.082 8.956 111.082 8.868C111.082 8.788 111.126 8.74 111.214 8.724L111.382 8.7C111.55 8.676 111.658 8.628 111.706 8.556C111.762 8.484 111.79 8.364 111.79 8.196V1.32C111.79 1.176 111.766 1.08 111.718 1.032C111.678 0.976 111.602 0.94 111.49 0.924L111.238 0.887999C111.15 0.872 111.106 0.824 111.106 0.744C111.106 0.664 111.15 0.616 111.238 0.599999C111.462 0.552 111.65 0.496 111.802 0.431999C111.954 0.367999 112.082 0.303999 112.186 0.24C112.314 0.16 112.41 0.12 112.474 0.12C112.562 0.12 112.606 0.184 112.606 0.312V3.492C112.606 3.564 112.63 3.608 112.678 3.624C112.726 3.632 112.786 3.604 112.858 3.54C113.162 3.26 113.43 3.068 113.662 2.964C113.894 2.86 114.138 2.808 114.394 2.808C114.77 2.808 115.066 2.936 115.282 3.192C115.498 3.44 115.606 3.808 115.606 4.296V8.196C115.606 8.364 115.63 8.484 115.678 8.556C115.734 8.62 115.846 8.664 116.014 8.688L116.278 8.724C116.366 8.74 116.41 8.788 116.41 8.868C116.41 8.956 116.362 9 116.266 9H114.25C114.138 9 114.082 8.956 114.082 8.868C114.082 8.788 114.126 8.74 114.214 8.724L114.382 8.7C114.55 8.676 114.658 8.628 114.706 8.556C114.762 8.484 114.79 8.364 114.79 8.196V4.428C114.79 4.036 114.718 3.76 114.574 3.6C114.43 3.44 114.226 3.36 113.962 3.36C113.706 3.36 113.474 3.436 113.266 3.588C113.066 3.732 112.906 3.928 112.786 4.176C112.666 4.416 112.606 4.684 112.606 4.98V8.196C112.606 8.364 112.63 8.484 112.678 8.556C112.734 8.628 112.846 8.672 113.014 8.688L113.338 8.724C113.426 8.74 113.47 8.788 113.47 8.868C113.47 8.956 113.422 9 113.326 9H111.226ZM117.763 9.108C117.587 9.108 117.435 9.052 117.307 8.94C117.187 8.82 117.127 8.664 117.127 8.472C117.127 8.288 117.187 8.14 117.307 8.028C117.435 7.908 117.587 7.848 117.763 7.848C117.923 7.848 118.067 7.908 118.195 8.028C118.323 8.14 118.387 8.288 118.387 8.472C118.387 8.664 118.323 8.82 118.195 8.94C118.067 9.052 117.923 9.108 117.763 9.108Z" fill="black"/>
</svg>
