<svg width="2262" height="1040" viewBox="0 0 2262 1040" fill="none" xmlns="http://www.w3.org/2000/svg">
<path fill-rule="evenodd" clip-rule="evenodd" d="M888.052 677.211C888.921 684.413 889.81 691.776 890.677 699.22C891.918 709.864 893.154 720.78 894.355 731.385C895.686 743.143 896.975 754.52 898.177 764.719C901.055 789.132 902.379 807.098 890.677 810.72C880.595 813.84 869.585 806.587 857.545 794.22C848.991 785.433 839.918 774.066 830.29 762.002C825.24 755.675 820.038 749.157 814.677 742.72C812.952 740.648 811.233 738.577 809.523 736.518C785.439 707.506 763.13 680.635 749.677 681.719C740.143 682.488 713.961 696.12 681.677 718.22C672.567 724.456 662.905 730.964 652.993 737.641C633.259 750.933 612.532 764.895 593.177 778.72C586.311 783.624 579.612 788.463 573.145 793.135C533.951 821.447 503.294 843.593 495.677 836.72C490.726 832.252 489.245 826.846 500.177 806.72C515.744 778.061 541.801 734.654 566.177 696.219C567.509 694.12 568.834 692.033 570.149 689.961C597.857 646.323 621.291 609.416 613.177 599.719C605.902 591.025 588.552 578.741 569.194 565.036C552.258 553.045 533.785 539.966 519.177 527.251C515.184 523.775 511.222 520.806 507.565 518.066C496.804 510 488.685 503.915 490.177 492.719C492.177 477.719 502.174 473.055 523.177 470.72C544.164 468.933 568.024 468.388 593.089 467.816C610.072 467.428 627.608 467.027 645.177 466.22C688.677 464.22 700.677 422.219 700.677 422.219L758.177 305.719C758.177 305.719 772.188 275.706 786.177 246.719C788.014 242.914 789.754 238.83 791.5 234.733C798.889 217.391 806.373 199.828 821.677 202.219C834.806 204.271 835.025 215.756 835.329 231.683C835.396 235.167 835.467 238.863 835.677 242.72C835.677 271.219 835.882 279.798 836.677 303.219C838.304 351.146 841.677 396.719 844.177 425.219C846.337 449.845 864.482 446.79 885.239 443.295C888.504 442.746 891.835 442.185 895.177 441.719C919.059 437.179 950.05 428.382 980.682 419.688C1014.21 410.173 1047.3 400.779 1070.18 397.219C1070.64 397.148 1071.09 397.078 1071.53 397.009C1088.82 394.311 1093.82 397.289 1099 403.5C1105.32 414.781 1071.68 437.087 1071.68 437.087C1071.68 437.087 1019.25 473.693 989.177 494.719C938.626 530.066 894.177 565.219 885.177 577.719C877.355 588.584 882.278 629.373 888.052 677.211ZM753.448 410.058C740.516 439.849 726.916 471.178 716.177 489.219C700.544 515.483 648.35 513.788 612.411 512.621C590.877 511.922 575.179 511.412 576.677 517.219C578.291 523.473 594.23 533.959 612.409 545.919C639.287 563.602 671.063 584.508 668.677 599.719C666.731 612.128 649.513 638.268 633.152 663.107C615.89 689.314 599.583 714.072 603.177 719.72C606.265 724.572 630.172 706.27 658.762 684.383C694.988 656.65 738.734 623.161 757.177 623.719C777.654 624.34 804.676 661.153 824.506 688.168C836.634 704.69 846.072 717.548 849.677 716.22C854.309 714.513 849.433 692.486 843.509 665.721C837.282 637.587 829.896 604.219 831.177 583.719C832.725 558.958 877.959 527.873 910.301 505.647C930.204 491.97 945.225 481.648 942.177 478.22C939.182 474.849 925.598 478.631 908.018 483.525C878.651 491.701 838.132 502.981 817.177 489.219C796.032 475.333 796.6 417.62 797.004 376.689C797.239 352.774 797.418 334.588 793.177 334.22C786.617 333.649 770.621 370.499 753.448 410.058Z" fill="white"/>
<path d="M147.2 799.2C136.533 799.2 124.533 798.133 111.2 796C98.3998 793.867 86.1331 791.2 74.3998 788C63.1998 784.8 54.3998 781.333 47.9998 777.6C44.2665 775.467 41.3331 773.333 39.1998 771.2C37.5998 768.533 36.7998 764.267 36.7998 758.4L32.7998 632.8C32.7998 622.133 36.2665 616.8 43.1998 616.8C49.0665 616.8 53.0665 621.6 55.1998 631.2L62.3998 661.6C80.5331 737.867 114.4 776 164 776C190.666 776 211.733 767.2 227.2 749.6C243.2 731.467 251.2 706.133 251.2 673.6C251.2 642.133 242.933 612.8 226.4 585.6C210.4 558.4 184.533 531.467 148.8 504.8C109.333 476.533 80.5331 449.333 62.3998 423.2C44.2665 396.533 35.1998 368.267 35.1998 338.4C35.1998 298.933 48.7998 267.467 75.9998 244C103.733 220 138.933 208 181.6 208C194.761 208 207.561 209.263 220 211.789C220.76 211.943 221.518 212.102 222.275 212.266C224.192 212.68 226.1 213.125 228 213.6C236.431 215.708 244.012 218.326 250.743 221.453C255.934 223.866 260.62 226.581 264.8 229.6C267.812 231.608 270.115 233.852 271.709 236.332C271.809 236.487 271.906 236.643 272 236.8C274.133 239.467 275.2 242.933 275.2 247.2L277.6 368C277.6 377.067 274.133 381.6 267.2 381.6C262.4 381.6 258.933 377.867 256.8 370.4L251.2 350.4C239.466 309.333 227.2 279.467 214.4 260.8C202.133 241.6 184.266 232 160.8 232C137.866 232 119.466 239.467 105.6 254.4C92.2665 269.333 85.5998 290.4 85.5998 317.6C85.5998 340.533 93.0665 362.4 108 383.2C122.933 404 149.066 429.333 186.4 459.2C226.4 491.733 255.466 523.2 273.6 553.6C292.266 583.467 301.6 615.467 301.6 649.6C301.6 679.467 294.933 705.6 281.6 728C272.452 743.369 260.918 756.478 247 767.328C240.632 772.292 233.766 776.782 226.4 780.8C211.042 789.015 194.129 794.479 175.661 797.192C175.109 797.274 174.555 797.352 174 797.429C165.4 798.609 156.467 799.2 147.2 799.2Z" fill="white"/>
<path d="M262.2 792C261.666 792 261.151 791.987 260.653 791.961C253.684 791.596 250.2 788.675 250.2 783.2C250.2 778.4 253.666 775.2 260.6 773.6L279 770.4C290.2 768.267 297.4 765.333 300.6 761.6C304.333 757.867 306.2 750.4 306.2 739.2V268.8C306.2 257.6 304.333 250.133 300.6 246.4C297.4 242.667 290.2 239.733 279 237.6L271.709 236.332L260.6 234.4C253.666 232.8 250.2 229.6 250.2 224.8C250.2 223.552 250.381 222.436 250.743 221.453C251.958 218.157 255.21 216.355 260.5 216.048C261.045 216.016 261.612 216 262.2 216H429.4C460.866 216 488.6 222.933 512.6 236.8C536.6 250.133 555.267 268.8 568.6 292.8C581.933 316.8 588.6 344.533 588.6 376C588.6 406.4 581.933 433.333 568.6 456.8C555.267 480.267 536.866 498.667 513.4 512C489.933 524.8 462.733 531.2 431.8 531.2H374.2C366.733 531.2 363 534.933 363 542.4V736C363 747.2 365.133 754.933 369.4 759.2C373.666 762.933 383.266 766.133 398.2 768.8L427.8 773.6C433.666 774.667 436.6 777.6 436.6 782.4C436.6 788.8 432.6 792 424.6 792H262.2ZM363 467.2C363 496.533 380.866 511.2 416.6 511.2C451.266 511.2 478.466 498.933 498.2 474.4C518.466 449.867 528.6 416.267 528.6 373.6C528.6 329.867 518.466 296 498.2 272C477.933 248 449.133 236 411.8 236C379.266 236 363 246.667 363 268V467.2Z" fill="white"/>
<path d="M999.2 792C991.2 792 987.2 789.067 987.2 783.2C987.2 778.4 990.666 775.2 997.6 773.6L1016 770.4C1027.2 768.267 1034.4 765.333 1037.6 761.6C1041.33 757.867 1043.2 750.4 1043.2 739.2V268.8C1043.2 257.6 1041.33 250.133 1037.6 246.4C1034.4 242.667 1027.2 239.733 1016 237.6L997.6 234.4C990.666 232.8 987.2 229.6 987.2 224.8C987.2 218.933 991.2 216 999.2 216H1145.6C1153.6 216 1157.6 219.2 1157.6 225.6C1157.6 230.4 1154.67 233.333 1148.8 234.4L1127.2 237.6C1116 239.2 1108.53 242.133 1104.8 246.4C1101.6 250.667 1100 258.4 1100 269.6V717.6C1100 736.8 1105.33 750.667 1116 759.2C1127.2 767.733 1141.07 772 1157.6 772C1169.87 772 1182.4 769.6 1195.2 764.8C1208.53 759.467 1220.53 749.867 1231.2 736C1241.87 721.6 1249.87 700.8 1255.2 673.6L1265.6 620C1267.2 613.067 1271.2 609.6 1277.6 609.6C1285.07 609.6 1288.27 614.133 1287.2 623.2L1279.14 749.5L1277.82 770.222L1277.6 773.6C1276.61 784.991 1270.79 791.093 1260.14 791.906C1259.32 791.969 1258.48 792 1257.6 792H999.2Z" fill="white"/>
<path d="M1262.6 792C1261.73 792 1260.91 791.969 1260.14 791.906C1253.78 791.391 1250.6 788.756 1250.6 784C1250.6 778.667 1254.33 775.2 1261.8 773.6L1273.8 771.2C1275.18 770.923 1276.52 770.597 1277.82 770.222C1286.5 767.703 1293.16 762.962 1297.8 756C1303.13 747.467 1307.67 735.733 1311.4 720.8L1435.4 220.8C1436.47 215.467 1438.07 212 1440.2 210.4C1442.87 208.8 1445.27 208 1447.4 208C1450.07 208 1452.47 208.8 1454.6 210.4C1457.27 212 1459.13 215.467 1460.2 220.8L1586.6 728C1590.33 742.933 1594.6 753.333 1599.4 759.2C1604.2 765.067 1611.67 769.067 1621.8 771.2L1633.8 773.6C1634.15 773.675 1634.5 773.755 1634.83 773.839C1641.61 775.531 1645 778.918 1645 784C1645 788.68 1641.92 791.307 1635.76 791.88C1634.9 791.96 1633.98 792 1633 792H1496.2C1488.73 792 1485 789.067 1485 783.2C1485 777.333 1489.53 774.133 1498.6 773.6L1513.8 772C1522.87 770.933 1528.47 768 1530.6 763.2C1533.27 758.4 1533.27 750.133 1530.6 738.4L1500.2 614.4C1497 600.533 1488.2 593.6 1473.8 593.6H1389.8C1375.93 593.6 1367.13 600.533 1363.4 614.4L1336.2 721.6C1328.2 752 1336.2 768.8 1360.2 772L1372.2 773.6C1381.27 775.2 1385.8 778.4 1385.8 783.2C1385.8 789.067 1382.07 792 1374.6 792H1262.6ZM1387.4 569.6H1475.4C1483.93 569.6 1487.4 565.067 1485.8 556L1434.6 341.6H1430.6L1377 556C1375.4 565.067 1378.87 569.6 1387.4 569.6Z" fill="white"/>
<path d="M1638.4 792C1637.47 792 1636.59 791.96 1635.76 791.88C1629.52 791.275 1626.4 788.381 1626.4 783.2C1626.4 777.918 1629.21 774.797 1634.83 773.839C1635.45 773.733 1636.11 773.653 1636.8 773.6L1654.75 770.808L1654.8 770.8L1672.8 768C1683.47 766.4 1690.67 763.733 1694.4 760C1698.13 755.733 1700 748 1700 736.8V256.8C1700 249.333 1698.4 244 1695.2 240.8C1692 237.6 1685.33 236 1675.2 236C1655.47 236 1636 244.533 1616.8 261.6C1597.6 278.667 1585.07 306.133 1579.2 344L1575.2 370.4C1574.13 377.333 1570.4 380.8 1564 380.8C1556 380.8 1552.53 376.267 1553.6 367.2L1560.8 222.4C1561.87 210.133 1566.67 204 1575.2 204C1578.93 204 1582.4 205.067 1585.6 207.2C1588.8 208.8 1594.13 210.667 1601.6 212.8C1609.6 214.933 1622.13 216 1639.2 216H1817.6C1834.67 216 1846.93 214.933 1854.4 212.8C1862.4 210.667 1868 208.8 1871.2 207.2C1874.93 205.067 1878.4 204 1881.6 204C1890.13 204 1894.93 210.133 1896 222.4L1899.44 291.5L1900.71 317.103L1903.2 367.2C1904.27 376.267 1900.8 380.8 1892.8 380.8C1886.4 380.8 1882.67 377.333 1881.6 370.4L1880.91 365.877L1877.6 344C1872.27 306.133 1860 278.667 1840.8 261.6C1821.6 244.533 1801.87 236 1781.6 236C1771.47 236 1764.8 237.6 1761.6 240.8C1758.4 244 1756.8 249.333 1756.8 256.8V736.8C1756.8 748 1758.67 755.733 1762.4 760C1766.67 763.733 1773.87 766.4 1784 768L1820 773.6C1826.93 774.133 1830.4 777.333 1830.4 783.2C1830.4 789.067 1826.4 792 1818.4 792H1638.4Z" fill="white"/>
<path d="M2045 799.2C2019.4 799.2 1995.4 791.733 1973 776.8C1950.6 761.333 1930.87 740.267 1913.8 713.6C1897.27 686.933 1884.2 655.733 1874.6 620C1865.53 583.733 1861 544.8 1861 503.2C1861 461.6 1865.53 422.933 1874.6 387.2C1876.56 379.903 1878.67 372.795 1880.91 365.877C1886.59 348.415 1893.19 332.157 1900.71 317.103C1904.76 308.999 1909.07 301.244 1913.65 293.839C1913.7 293.759 1913.75 293.68 1913.8 293.6C1930.87 266.4 1950.6 245.333 1973 230.4C1995.4 215.467 2019.4 208 2045 208C2070.6 208 2094.33 215.467 2116.2 230.4C2138.6 245.333 2158.33 266.4 2175.4 293.6C2192.47 320.267 2205.53 351.467 2214.6 387.2C2224.2 422.933 2229 461.6 2229 503.2C2229 544.8 2224.2 583.733 2214.6 620C2205.53 655.733 2192.47 686.933 2175.4 713.6C2158.33 740.267 2138.6 761.333 2116.2 776.8C2094.33 791.733 2070.6 799.2 2045 799.2ZM2045 777.6C2082.87 777.6 2112.47 754.933 2133.8 709.6C2155.13 664.267 2165.8 595.467 2165.8 503.2C2165.8 410.933 2155.13 342.4 2133.8 297.6C2112.47 252.267 2082.87 229.6 2045 229.6C2007.67 229.6 1978.07 252.267 1956.2 297.6C1934.87 342.4 1924.2 410.933 1924.2 503.2C1924.2 595.467 1934.87 664.267 1956.2 709.6C1978.07 754.933 2007.67 777.6 2045 777.6Z" fill="white"/>
<path fill-rule="evenodd" clip-rule="evenodd" d="M272 236.8C271.906 236.643 271.809 236.487 271.709 236.332L279 237.6C290.2 239.733 297.4 242.667 300.6 246.4C300.6 246.4 297.189 243.132 293 241.5C288.2 239.63 281 238 278 239.5C275 241 275.2 247.2 275.2 247.2C275.2 242.933 274.133 239.467 272 236.8Z" fill="white"/>
<path fill-rule="evenodd" clip-rule="evenodd" d="M250.2 783.2C250.2 788.675 253.684 791.596 260.653 791.961C255.349 791.834 234.563 791.474 222.5 792C205.071 792.76 182.387 796.248 175.661 797.192C194.129 794.479 211.042 789.015 226.4 780.8C233.766 776.782 240.632 772.292 247 767.328C247 767.328 241.5 771 244 774C248 777 260.6 773.6 260.6 773.6C253.666 775.2 250.2 778.4 250.2 783.2Z" fill="white"/>
<path fill-rule="evenodd" clip-rule="evenodd" d="M1877.6 344L1880.91 365.877C1878.67 372.795 1876.56 379.903 1874.6 387.2C1874.6 387.2 1877.03 373.73 1877.6 365C1878.13 356.816 1877.6 344 1877.6 344Z" fill="white"/>
<path fill-rule="evenodd" clip-rule="evenodd" d="M1913.65 293.839C1909.07 301.244 1904.76 308.999 1900.71 317.103L1899.44 291.5C1899.44 291.5 1900.96 299.922 1904.5 301C1908.2 302.129 1912.78 295.224 1913.65 293.839Z" fill="white"/>
<path fill-rule="evenodd" clip-rule="evenodd" d="M1297.8 756C1293.16 762.962 1286.5 767.703 1277.82 770.222L1279.14 749.5C1279.14 749.5 1278.51 759.327 1284.5 762C1291.5 765.124 1297.8 756 1297.8 756Z" fill="white"/>
<path fill-rule="evenodd" clip-rule="evenodd" d="M1633.8 773.6L1621.8 771.2C1621.8 771.2 1629.82 772.372 1635 772.5C1642.47 772.684 1653.9 770.94 1654.75 770.808L1636.8 773.6C1636.11 773.653 1635.45 773.733 1634.83 773.839C1634.5 773.755 1634.15 773.675 1633.8 773.6Z" fill="white"/>
<path fill-rule="evenodd" clip-rule="evenodd" d="M1633 792C1633.98 792 1634.9 791.96 1635.76 791.88C1636.59 791.96 1637.47 792 1638.4 792H1633Z" fill="white"/>
<path fill-rule="evenodd" clip-rule="evenodd" d="M1257.6 792C1258.48 792 1259.32 791.969 1260.14 791.906C1260.91 791.969 1261.73 792 1262.6 792H1257.6Z" fill="white"/>
<path fill-rule="evenodd" clip-rule="evenodd" d="M228 213.6C226.1 213.125 224.192 212.68 222.275 212.266C227.203 213.273 233.221 214.377 242 215C250.779 215.623 262.2 216 262.2 216C261.612 216 261.045 216.016 260.5 216.048C255.21 216.355 251.958 218.157 250.743 221.453C244.012 218.326 236.431 215.708 228 213.6Z" fill="white"/>
</svg>
