<svg width="611" height="636" viewBox="0 0 611 636" fill="none" xmlns="http://www.w3.org/2000/svg">
<path fill-rule="evenodd" clip-rule="evenodd" d="M398.052 475.211C398.921 482.413 399.81 489.776 400.677 497.22C401.918 507.864 403.154 518.78 404.355 529.385C405.686 541.143 406.975 552.52 408.177 562.719C411.055 587.132 412.379 605.098 400.677 608.72C390.595 611.84 379.585 604.587 367.545 592.22C358.991 583.433 349.918 572.066 340.29 560.002C335.24 553.675 330.038 547.157 324.677 540.72C322.952 538.648 321.233 536.577 319.523 534.518C295.439 505.506 273.13 478.635 259.677 479.719C250.143 480.488 223.961 494.12 191.677 516.22C182.567 522.456 172.905 528.964 162.993 535.641C143.259 548.933 122.532 562.895 103.177 576.72C96.3109 581.624 89.6118 586.463 83.145 591.135C43.9514 619.447 13.294 641.593 5.67726 634.72C0.726191 630.252 -0.754672 624.846 10.1772 604.72C25.7441 576.061 51.8015 532.654 76.1773 494.219C77.509 492.12 78.834 490.033 80.1494 487.961C107.857 444.323 131.291 407.416 123.177 397.719C115.902 389.025 98.5521 376.741 79.1938 363.036C62.2579 351.045 43.785 337.966 29.1772 325.251C25.184 321.775 21.2222 318.806 17.5655 316.066C6.80414 308 -1.31546 301.915 0.177266 290.719C2.17722 275.719 12.174 271.055 33.1773 268.72C54.1638 266.933 78.0244 266.388 103.089 265.816C120.072 265.428 137.608 265.027 155.177 264.22C198.677 262.22 210.677 220.219 210.677 220.219L268.177 103.719C268.177 103.719 282.188 73.7061 296.177 44.7194C298.014 40.9136 299.754 36.8295 301.5 32.7332C308.889 15.391 316.373 -2.17182 331.677 0.219481C344.806 2.27075 345.025 13.7565 345.329 29.6828C345.396 33.1667 345.467 36.863 345.677 40.7195C345.677 69.2195 345.882 77.7983 346.677 101.219C348.304 149.146 351.677 194.719 354.177 223.219C356.337 247.845 374.482 244.79 395.239 241.295C398.504 240.746 401.835 240.185 405.177 239.719C429.059 235.179 460.05 226.382 490.682 217.688C524.206 208.173 557.301 198.779 580.177 195.219C580.636 195.148 581.087 195.078 581.53 195.009C598.818 192.311 604.5 195.009 609.677 201.219C616 212.5 581.677 235.087 581.677 235.087C581.677 235.087 529.248 271.693 499.177 292.719C448.626 328.066 404.177 363.219 395.177 375.719C387.355 386.584 392.278 427.373 398.052 475.211ZM263.448 208.058C250.516 237.849 236.916 269.178 226.177 287.219C210.544 313.483 158.35 311.788 122.411 310.621C100.877 309.922 85.1786 309.412 86.6773 315.219C88.2911 321.473 104.23 331.959 122.409 343.919C149.287 361.602 181.063 382.508 178.677 397.719C176.731 410.128 159.513 436.268 143.152 461.107C125.89 487.314 109.583 512.072 113.177 517.72C116.265 522.572 140.172 504.27 168.762 482.383C204.988 454.65 248.734 421.161 267.177 421.719C287.654 422.34 314.676 459.153 334.506 486.168C346.634 502.69 356.072 515.548 359.677 514.22C364.309 512.513 359.433 490.486 353.509 463.721C347.282 435.587 339.896 402.219 341.177 381.719C342.725 356.958 387.959 325.873 420.301 303.647C440.204 289.97 455.225 279.648 452.177 276.22C449.182 272.849 435.598 276.631 418.018 281.525C388.651 289.701 348.132 300.981 327.177 287.219C306.032 273.333 306.6 215.62 307.004 174.689C307.239 150.774 307.418 132.588 303.177 132.22C296.617 131.649 280.621 168.499 263.448 208.058Z" fill="white"/>
</svg>
